<svg width="31" height="25" viewBox="0 0 31 25" fill="none" xmlns="http://www.w3.org/2000/svg">
<path d="M2.56234 10.6763C10.6154 7.17651 15.9853 4.86921 18.6722 3.75444C26.3438 0.571533 27.9379 0.0186289 28.9769 0.000176999C29.2054 -0.00364381 29.7163 0.0528482 30.0473 0.320739C30.3268 0.546942 30.4037 0.852509 30.4405 1.06697C30.4773 1.28144 30.5231 1.76999 30.4867 2.15174C30.0709 6.50889 28.2721 17.0826 27.357 21.9626C26.9697 24.0276 26.2073 24.72 25.4691 24.7877C23.8649 24.935 22.6467 23.7302 21.093 22.7142C18.6617 21.1245 17.2882 20.1348 14.9282 18.5835C12.2008 16.7907 13.9688 15.8053 15.5232 14.195C15.9299 13.7735 22.9981 7.36057 23.1349 6.77881C23.152 6.70606 23.1679 6.43485 23.0063 6.29164C22.8448 6.14843 22.6064 6.1974 22.4344 6.23635C22.1905 6.29156 18.3065 8.85235 10.7823 13.9187C9.67983 14.6739 8.68124 15.0418 7.78655 15.0225C6.80022 15.0013 4.90291 14.4662 3.49246 14.0089C1.76249 13.448 0.387541 13.1514 0.507268 12.1987C0.569629 11.7025 1.25465 11.1951 2.56234 10.6763Z" fill="white"/>
</svg>
