<svg width="32" height="25" viewBox="0 0 32 25" fill="none" xmlns="http://www.w3.org/2000/svg">
<path d="M27.0893 2.02263C25.0498 1.08645 22.8626 0.396704 20.5758 0.00165611C20.5342 -0.0059654 20.4926 0.0130884 20.4712 0.0511959C20.1899 0.551675 19.8783 1.20458 19.6601 1.71777C17.2005 1.34939 14.7536 1.34939 12.3444 1.71777C12.1262 1.19315 11.8033 0.551675 11.5208 0.0511959C11.4993 0.0143586 11.4577 -0.00469515 11.4161 0.00165611C9.13056 0.395434 6.94341 1.08518 4.90258 2.02263C4.88492 2.03025 4.86979 2.04295 4.8597 2.05946C0.71119 8.25956 -0.425267 14.3072 0.13224 20.2799C0.134763 20.3092 0.15116 20.3371 0.173864 20.3549C2.91095 22.3657 5.56226 23.5864 8.16438 24.3956C8.206 24.4083 8.25015 24.393 8.27664 24.3587C8.89216 23.5178 9.44084 22.6312 9.91132 21.6988C9.93907 21.6442 9.91258 21.5794 9.85582 21.5578C8.9855 21.2276 8.15681 20.8249 7.35965 20.3676C7.29658 20.3308 7.29154 20.2406 7.34956 20.1974C7.51732 20.0716 7.68507 19.9408 7.84526 19.8087C7.87427 19.7845 7.91464 19.7795 7.94869 19.7947C13.1857 22.1866 18.8554 22.1866 24.0306 19.7947C24.0647 19.7782 24.105 19.7833 24.1353 19.8074C24.2955 19.9395 24.4633 20.0716 24.6323 20.1974C24.6903 20.2406 24.6865 20.3308 24.6234 20.3676C23.8263 20.8338 22.9976 21.2276 22.126 21.5565C22.0693 21.5781 22.044 21.6442 22.0718 21.6988C22.5523 22.6299 23.101 23.5165 23.7052 24.3575C23.7304 24.393 23.7758 24.4083 23.8175 24.3956C26.4322 23.5864 29.0835 22.3657 31.8206 20.3549C31.8446 20.3371 31.8597 20.3104 31.8622 20.2812C32.5295 13.3761 30.7447 7.378 27.131 2.06073C27.1221 2.04295 27.107 2.03025 27.0893 2.02263ZM10.6933 16.6432C9.11668 16.6432 7.81751 15.1951 7.81751 13.4168C7.81751 11.6384 9.09145 10.1903 10.6933 10.1903C12.3078 10.1903 13.5944 11.6511 13.5692 13.4168C13.5692 15.1951 12.2952 16.6432 10.6933 16.6432ZM21.3263 16.6432C19.7497 16.6432 18.4505 15.1951 18.4505 13.4168C18.4505 11.6384 19.7244 10.1903 21.3263 10.1903C22.9408 10.1903 24.2274 11.6511 24.2022 13.4168C24.2022 15.1951 22.9408 16.6432 21.3263 16.6432Z" fill="white"/>
</svg>
