<svg width="274" height="54" viewBox="0 0 274 54" fill="none" xmlns="http://www.w3.org/2000/svg">
<g clip-path="url(#clip0_454_1395)">
<path d="M74.1401 12.8365V39.9445C74.1401 39.9445 98.3139 44.9298 98.3139 26.3943C98.3139 7.04111 74.1401 12.8365 74.1401 12.8365ZM80.4016 35.2368V17.6907C80.4016 17.6907 91.9868 15.2684 91.9868 26.4194C91.9868 36.4229 80.4016 35.2368 80.4016 35.2368ZM112.205 18.5605C106.41 18.5605 102.152 23.4783 102.152 29.5533C102.152 35.6283 106.41 40.55 112.205 40.55C118.003 40.55 122.2 35.6302 122.2 29.5553C122.2 23.4803 118.003 18.5605 112.205 18.5605ZM112.189 35.5898C108.749 35.5898 107.998 32.0855 107.998 29.5533C107.998 27.025 108.398 23.6037 112.189 23.6037C115.908 23.6037 116.357 27.0173 116.357 29.5553C116.357 32.0855 115.605 35.5878 112.189 35.5878V35.5898ZM127.232 19.976V39.8365H132.873V23.8563C132.873 23.8563 136.298 22.8419 139.371 24.2575C140.276 20.8188 140.481 19.6077 140.481 19.6077C140.481 19.6077 137.61 18.3715 133.861 18.6164C130.109 18.8613 127.231 19.976 127.231 19.976H127.232ZM153.133 18.5605C146.92 18.0282 144.068 19.681 144.068 19.681L144.606 24.136C144.606 24.136 148.186 22.6703 152.026 23.3896C154.708 23.8968 154.511 27.1638 154.511 27.1638H149.334C147.736 27.1638 146.146 27.5245 144.768 28.3345C143.252 29.2274 141.98 30.6025 141.859 33.1983C141.621 38.1837 144.647 39.6745 146.661 40.1084C149.195 40.1084 153.836 40.1971 155.995 40.1084C157.285 40.0327 158.549 39.7134 159.721 39.1673V23.8235C159.721 23.8235 159.346 19.0928 153.133 18.5605ZM154.511 35.7286H149.506C149.506 35.7286 147.524 35.5396 147.524 33.5667C147.524 31.8136 148.666 31.0036 149.743 31.0036H154.511V35.7286ZM204.203 18.5605C197.99 18.0282 195.138 19.681 195.138 19.681L195.675 24.136C195.675 24.136 199.254 22.6703 203.094 23.3896C205.778 23.8968 205.581 27.1638 205.581 27.1638H200.404C198.806 27.1638 197.216 27.5245 195.839 28.3345C194.322 29.2274 193.05 30.6025 192.929 33.1983C192.691 38.1837 195.717 39.6745 197.73 40.1084C200.265 40.1084 204.904 40.1971 207.065 40.1084C209.079 40.0255 210.791 39.1673 210.791 39.1673V23.8235C210.783 23.8235 210.417 19.0928 204.203 18.5605ZM205.581 35.7286H200.576C200.576 35.7286 198.594 35.5396 198.594 33.5667C198.594 31.8136 199.736 31.0036 200.811 31.0036H205.581V35.7286ZM182.173 12.337V23.3163H171.852V12.337H165.608V39.6976H171.852V28.7105H182.175V39.6976H188.419V12.337H182.173ZM231.931 19.762L230.774 24.1109C230.774 24.1109 221.309 21.2855 221.405 29.5456C221.504 37.8076 228.858 35.8906 231.125 34.7296C231.63 38.1181 231.931 39.4276 231.931 39.4276C231.931 39.4276 227.194 41.1055 223.069 40.1412C218.936 39.175 214.909 36.095 215.21 29.293C215.511 22.489 220.151 20.2055 222.361 19.247C226.094 17.6425 231.931 19.762 231.931 19.762ZM236.163 10.2599L242.154 9.34961V26.5428L248.906 19.06H255.453L247.397 28.213C247.397 28.213 254.343 36.2686 255.812 39.6995C253.846 39.6417 249.012 39.6995 249.012 39.6995C249.012 39.6995 246.899 34.6235 242.26 31.0113V39.6995H236.365L236.163 10.258V10.2599ZM273.176 19.7138L272.018 23.9624C272.018 23.9624 264.697 21.8506 264.159 24.5198C263.76 26.5409 268.171 27.5399 269.247 28.0568C272.117 29.4241 274 30.8898 274 34.0238C274 37.1596 272.574 40.4517 265.423 40.4517C258.274 40.4517 257.817 38.986 257.817 38.986L258.974 34.4345C258.974 34.4345 261.714 36.2763 266.378 35.7363C269.247 35.4008 268.31 33.1713 265.903 32.2148C263.499 31.2563 257.23 29.9564 258.868 23.7676C261.095 15.4169 273.176 19.7138 273.176 19.7138Z" fill="white"/>
<path fill-rule="evenodd" clip-rule="evenodd" d="M25.8254 17.9211C41.6267 12.6176 55.7474 13.6802 57.3701 20.3049C58.991 26.9353 47.4965 36.6051 31.6971 41.9184C15.8958 47.2219 1.76744 46.1593 0.152379 39.5269C-1.46847 32.9042 10.026 23.2266 25.8254 17.9211Z" fill="url(#paint0_linear_454_1395)"/>
<path fill-rule="evenodd" clip-rule="evenodd" d="M5.27344 0.0651956C6.91937 -0.565447 11.778 3.53662 14.7052 5.57512C17.4124 4.6417 21.5784 3.61762 25.2407 4.20005C27.2359 4.51827 29.015 5.06791 30.383 5.80462C31.9248 4.74777 40.2567 -1.69559 40.8027 0.524196C41.2118 2.21748 41.1616 3.86448 40.9262 5.46134C40.4844 8.39855 39.726 11.4206 38.96 14.4176C38.5857 15.8988 37.8756 17.3298 37.7386 18.6663C37.5263 20.6874 38.219 22.8571 38.7169 24.6333C39.2205 26.4191 39.4829 28.3361 40.6812 29.5704C47.2032 34.6387 52.9514 41.9326 54.1573 45.5351C54.6629 47.051 54.4101 48.2544 53.4241 49.0972C51.7685 50.5128 49.4685 50.2678 47.6682 48.9815C46.5182 48.1561 44.9764 46.5091 43.7473 45.1918C42.8146 44.2218 41.8317 43.3013 40.8027 42.434C40.2818 41.9981 40.0444 41.9422 39.7106 41.894C39.1645 41.8188 38.0705 42.245 37.2562 42.4648C35.1047 43.0473 32.4785 43.4889 30.0164 43.8091C30.9542 44.9469 32.9609 46.5515 34.1843 47.942C34.8847 48.7443 35.8707 49.9246 35.8958 51.3903C35.919 52.6342 34.493 54.4181 30.7496 53.9109C29.7 53.7721 26.1187 52.2253 25.4838 51.8396C10.2305 42.785 9.58411 34.0736 7.8417 19.3374C7.36896 15.2739 5.51656 10.1671 4.78332 5.68891C4.48231 3.80662 3.77222 0.69391 5.27344 0.0651956Z" fill="white"/>
<path d="M33.1153 16.0545C32.3396 16.1432 31.7125 17.5433 30.8249 18.1894C29.5127 19.1479 27.5716 18.7795 27.6777 18.0351C27.7742 17.2907 28.1987 17.2328 29.341 17.0612C30.4814 16.8876 32.4553 15.9889 31.8437 12.7373C31.3034 9.89653 28.1099 10.5349 28.1099 10.5349C28.1099 10.5349 27.5388 9.47996 26.1283 9.37196C24.7332 9.26589 23.5754 11.0749 23.5754 11.0749C23.5754 11.0749 22.6627 11.6342 22.2228 10.4867C22.0028 9.91389 20.82 9.01325 19.614 9.51275C18.3907 10.02 17.3236 11.2485 17.6246 12.5734C17.9256 13.8848 19.2802 14.3997 20.216 14.3342C21.1538 14.2686 21.75 14.7777 21.669 15.2175C21.5301 15.9233 19.6372 16.4305 17.8118 15.3814C16.7698 14.7835 16.3202 13.123 16.353 12.7624L16.4186 11.9196C16.4186 11.9196 13.4992 11.9196 12.8219 14.3824C12.1562 16.8471 13.8349 18.0505 14.8383 17.9541C15.5059 17.8885 15.0004 16.9647 15.8089 16.203C16.0366 15.9908 16.6965 15.85 16.9994 16.2512C17.3004 16.6523 17.1866 17.1441 16.7139 17.4141C16.2411 17.6841 15.8899 18.9049 17.2271 19.6744C17.8291 20.0177 16.9087 21.844 15.8417 20.4516C15.2126 19.6416 15.2782 19.281 14.6106 19.3542C13.941 19.4198 13.1345 18.7737 12.9956 18.6754C12.8643 18.577 12.0829 18.9936 12.3839 19.9039C12.6849 20.8103 12.6444 22.0253 15.7028 22.1295C16.3395 22.1622 16.5518 22.2702 16.681 22.7775C16.8103 23.2847 18.3347 25.6009 20.5865 24.3589C22.8364 23.113 21.4741 21.1575 20.4958 20.8682C19.8764 20.6888 19.5175 19.8865 19.9826 19.4025C20.2334 19.1421 20.4958 19.2405 21.1654 19.5105C23.0795 20.2973 23.9691 22.6945 22.7226 23.6955C22.2016 24.112 23.259 24.8082 24.1311 24.9297C25.0052 25.0609 28.3724 24.7176 28.739 22.8334C28.9011 22.008 28.7969 21.4911 28.82 21.0244C28.8528 20.1565 30.1167 20.0505 30.1495 20.6232C30.1823 21.196 30.1321 21.3272 30.4003 21.574C31.1355 22.2375 33.1018 21.385 33.671 20.0678C34.2653 18.741 34.1032 15.933 33.1172 16.0564L33.1153 16.0545ZM24.3743 19.738C24.025 19.738 23.56 19.2308 23.8128 18.9435C24.3916 18.3051 24.4804 17.3967 24.4399 16.8394C24.382 16.095 23.9517 15.8076 23.9266 15.3737C23.9112 14.9976 24.1968 14.7604 24.5383 14.6447C25.2792 14.4075 25.835 16.095 25.7771 17.5433C25.7443 18.7062 25.1731 19.738 24.3743 19.738ZM25.1654 11.1655C25.4259 10.479 25.86 10.5445 26.0376 10.56C26.217 10.5677 26.7149 10.7567 26.6898 11.2157C26.6898 11.2157 26.4196 12.6062 26.9599 13.0401C27.7742 13.7035 28.8509 13.4258 29.1037 13.4258C29.4549 13.4181 29.8697 14.2435 29.2831 14.6292C28.6965 15.015 26.9425 15.1615 26.0048 14.2107C25.0014 13.2117 24.9203 11.8135 25.1654 11.1655Z" fill="white" stroke="white" stroke-width="0.212" stroke-miterlimit="10"/>
</g>
<defs>
<linearGradient id="paint0_linear_454_1395" x1="16.6773" y1="17.7861" x2="40.9465" y2="41.9522" gradientUnits="userSpaceOnUse">
<stop stop-color="white"/>
<stop offset="0.98" stop-color="#FCF5F0"/>
</linearGradient>
<clipPath id="clip0_454_1395">
<rect width="274" height="54" fill="white"/>
</clipPath>
</defs>
</svg>
