<svg width="247" height="51" viewBox="0 0 247 51" fill="none" xmlns="http://www.w3.org/2000/svg">
<g clip-path="url(#clip0_454_1392)">
<path d="M61.0477 44.8189H50.5225L62.38 8.85156H75.7134L87.5725 44.8189H77.0456L69.1879 18.7564H68.907L61.0477 44.8189ZM59.0826 30.6286H78.8703V37.9339H59.0826V30.6286ZM91.032 8.85156H103.172L111.521 29.2253H111.941L120.292 8.85311H132.431V44.8189H122.887V24.0248H122.608L114.608 44.5377H108.853L100.855 23.8842H100.574V44.8189H91.0305L91.032 8.85156ZM137.054 44.8189V8.85156H146.811V36.951H161.336V44.8174H137.056L137.054 44.8189ZM165.277 44.8189V8.85156H180.855C183.591 8.85156 185.889 9.22093 187.749 9.95811C189.621 10.6953 191.03 11.7369 191.976 13.0846C192.935 14.4291 193.415 16.0163 193.415 17.8446C193.415 19.1659 193.123 20.3729 192.538 21.4609C191.961 22.5545 191.131 23.494 190.118 24.201C189.076 24.9274 187.861 25.4297 186.468 25.7109V26.0617C188.012 26.1205 189.415 26.513 190.678 27.2394C191.93 27.9418 192.972 28.9662 193.696 30.2067C194.445 31.4585 194.818 32.9344 194.818 34.6328C194.818 36.6002 194.304 38.3497 193.275 39.8843C192.257 41.4174 190.808 42.6228 188.924 43.5007C187.041 44.38 184.796 44.8189 182.187 44.8189H165.277ZM175.031 37.0206H179.592C181.229 37.0206 182.458 36.7161 183.276 36.1087C184.094 35.4875 184.503 34.5741 184.503 33.3687C184.503 32.5248 184.31 31.8108 183.924 31.2251C183.538 30.6409 182.989 30.1958 182.275 29.8914C181.574 29.5869 180.725 29.4339 179.731 29.4339H175.031V37.0206ZM175.031 23.3927H179.03C179.884 23.3927 180.639 23.2583 181.294 22.9894C181.948 22.7189 182.458 22.3326 182.819 21.8303C183.194 21.3141 183.381 20.6882 183.381 19.951C183.381 18.8383 182.982 17.9883 182.187 17.4041C181.392 16.8076 180.387 16.5077 179.171 16.5077H175.031V23.3927ZM211.397 45.3104C208.473 45.3104 205.97 44.7308 203.888 43.5717C201.851 42.4455 200.186 40.7481 199.099 38.6881C197.988 36.594 197.432 34.1646 197.432 31.4013C197.432 28.638 197.988 26.2147 199.099 24.1299C200.18 22.0657 201.846 20.3672 203.888 19.2478C205.97 18.0779 208.473 17.4922 211.397 17.4922C214.32 17.4922 216.823 18.0779 218.904 19.2478C220.947 20.3671 222.614 22.0662 223.694 24.1315C224.804 26.2147 225.36 28.638 225.36 31.4013C225.36 34.1646 224.804 36.594 223.694 38.6897C222.607 40.7495 220.942 42.4463 218.904 43.5717C216.823 44.7308 214.32 45.3104 211.397 45.3104ZM211.466 38.1457C212.286 38.1457 212.993 37.8706 213.589 37.3204C214.186 36.7687 214.648 35.9851 214.975 34.9667C215.302 33.9467 215.466 32.7366 215.466 31.3317C215.466 29.9146 215.302 28.7029 214.975 27.6953C214.648 26.6768 214.186 25.8933 213.589 25.3416C213.016 24.8001 212.254 24.504 211.466 24.5163C210.602 24.5163 209.859 24.7914 209.238 25.3431C208.619 25.8933 208.146 26.6768 207.818 27.6953C207.489 28.7029 207.326 29.9146 207.326 31.3302C207.326 32.7366 207.489 33.9482 207.818 34.9667C208.146 35.9851 208.619 36.7687 209.238 37.3204C209.859 37.8706 210.602 38.1457 211.466 38.1457ZM245.359 17.843V24.8687H227.606V17.843H245.359ZM231.044 11.3799H240.728V36.1427C240.728 36.5183 240.791 36.8336 240.921 37.0917C241.049 37.3374 241.248 37.5244 241.517 37.6527C241.785 37.7701 242.131 37.8288 242.553 37.8288C242.844 37.8288 243.184 37.7933 243.57 37.7237C243.967 37.6527 244.26 37.5955 244.447 37.5476L245.85 44.363C245.418 44.4913 244.797 44.6489 243.99 44.8359C243.195 45.0229 242.249 45.145 241.149 45.2053C238.926 45.3227 237.062 45.094 235.553 44.5207C234.043 43.9334 232.909 43.0154 232.149 41.7636C231.39 40.5102 231.021 38.9416 231.044 37.0561V11.3799Z" fill="white"/>
<path fill-rule="evenodd" clip-rule="evenodd" d="M22.4693 2.38505C20.2618 -0.868131 15.4206 -0.776949 13.338 2.55814L0.819768 22.6104C0.274504 23.4832 -0.00986028 24.494 0.00026107 25.5235C0.0103824 26.5529 0.314567 27.5579 0.876887 28.4198L13.9787 48.5323C16.1245 51.8241 20.9657 51.8241 23.11 48.5323L36.1732 28.4801C36.7544 27.5889 37.0593 26.5455 37.0494 25.4812C37.0395 24.4169 36.7153 23.3793 36.1176 22.4991L22.4693 2.38505ZM23.9637 14.265C23.4928 22.6676 16.8701 29.4351 8.50764 30.1739L18.5451 45.5821L31.6083 25.5313L23.9637 14.265Z" fill="white"/>
</g>
<defs>
<clipPath id="clip0_454_1392">
<rect width="247" height="51" fill="white"/>
</clipPath>
</defs>
</svg>
