<svg width="783" height="155" viewBox="0 0 783 155" fill="none" xmlns="http://www.w3.org/2000/svg">
<mask id="mask0_355_635" style="mask-type:luminance" maskUnits="userSpaceOnUse" x="0" y="0" width="155" height="155">
<path d="M139.478 0L0 15.5218L15.5218 155L155 139.478L139.478 0Z" fill="white"/>
</mask>
<g mask="url(#mask0_355_635)">
<path d="M30.1776 128.307C30.3019 128.431 30.4418 128.556 30.566 128.68L35.4749 121.705C39.545 113.705 41.1296 106.403 41.1761 100.189C41.1139 96.8651 40.6478 93.5717 39.8091 90.3716C39.2187 88.4454 38.7838 86.4568 38.5041 84.4529C38.5041 84.4374 38.5041 84.4064 38.5041 84.3752C38.3177 83.0392 38.1934 81.6722 38.1314 80.3052C37.2769 58.2771 54.396 39.4027 76.3619 38.1599L76.2066 38.0202C81.4417 37.6938 89.0691 38.8435 95.4694 37.1658C102.103 35.286 108.13 31.6354 112.915 26.6022C113.148 26.3536 113.412 26.1361 113.691 25.9497L118.196 19.565C99.3375 6.48495 74.451 2.89647 51.6153 12.2327C15.7615 26.8664 -1.41971 67.8154 13.2294 103.669C16.8956 112.633 22.1928 120.431 28.6552 126.847C29.1523 127.344 29.6495 127.825 30.1621 128.307H30.1776Z" fill="url(#paint0_linear_355_635)" stroke="url(#paint1_linear_355_635)" stroke-width="0.212912" stroke-miterlimit="10"/>
<path d="M121.489 31.6977C121.381 32.0239 121.256 32.3656 121.07 32.6763C116.829 40.6145 115.027 52.6072 115.415 57.3453C116.052 65.2212 118.46 70.3322 117.715 76.3596C118.274 98.2167 101.186 116.78 79.3906 117.977C79.3906 117.977 79.3596 117.977 79.3441 117.977C74.5439 118.287 73.9846 117.821 69.5885 118.023C60.5162 118.427 50.8382 122.218 44.1272 129.301L39.6377 135.686C40.9272 136.54 42.232 137.348 43.5525 138.156C44.1582 138.498 44.7641 138.824 45.3701 139.15C63.095 148.502 84.6724 150.226 104.665 142.055C140.519 127.406 157.701 86.4569 143.051 50.6031C139.043 40.801 133.063 32.3811 125.761 25.6392L121.489 31.6977Z" fill="url(#paint2_linear_355_635)" stroke="url(#paint3_linear_355_635)" stroke-width="0.212912" stroke-miterlimit="10"/>
</g>
<g clip-path="url(#clip0_355_635)">
<path d="M427.124 19.0479V37.4149H347.36V66.9618H411.506V85.3288H347.36V115.674H427.124V134.041H327.623V37.4149H327.614V19.0479H427.124Z" fill="url(#paint4_linear_355_635)"/>
<path d="M476.813 19.0959H450.983L543.502 134.09H569.407L523.142 76.6323L569.333 19.1837L543.502 19.2236L510.21 60.5711L476.813 19.0959Z" fill="url(#paint5_linear_355_635)"/>
<path d="M503.32 101.236L490.385 85.1531L450.91 134.177H476.814L503.32 101.236Z" fill="url(#paint6_linear_355_635)"/>
<path fill-rule="evenodd" clip-rule="evenodd" d="M328.315 134.042L235.672 19H211V133.994H230.738V43.5798L303.52 134.042H328.315Z" fill="url(#paint7_linear_355_635)"/>
<path d="M733.17 52.6965C732.602 47.9318 730.105 44.2122 725.755 41.5686C721.368 38.8942 715.7 37.5724 708.746 37.5724C703.863 37.5724 699.657 38.2181 696.163 39.4783C692.668 40.7693 689.958 42.4906 688.102 44.6732C686.251 46.8559 685.323 49.3459 685.25 52.1435C685.25 54.4797 685.891 56.5084 687.14 58.1992C688.389 59.9205 690.062 61.3654 692.239 62.5337C694.377 63.7324 696.766 64.716 699.371 65.5152C702.008 66.3145 704.648 66.9909 707.285 67.5443L719.443 70.1571C724.329 71.1407 729.072 72.4629 733.599 74.1534C738.126 75.8134 742.228 77.9345 745.827 80.4858C749.43 83.0374 752.283 86.1113 754.386 89.7081C756.489 93.3045 757.559 97.5158 757.559 102.373C757.559 108.92 755.634 114.669 751.745 119.649C747.86 124.598 742.262 128.471 734.917 131.269C727.607 134.036 718.766 135.449 708.355 135.449C698.301 135.449 689.529 134.097 682.149 131.392C674.735 128.718 668.955 124.783 664.784 119.618C660.613 114.454 658.367 108.152 658.046 100.744H681.152C681.473 104.617 682.899 107.845 685.323 110.458C687.782 113.04 690.99 114.946 694.914 116.237C698.873 117.497 703.291 118.143 708.178 118.143C713.277 118.143 717.769 117.466 721.654 116.144C725.504 114.823 728.535 112.979 730.711 110.581C732.923 108.213 734.028 105.416 734.063 102.219C734.028 99.299 733.027 96.8702 731.102 94.9642C729.142 93.0586 726.432 91.4601 722.972 90.1691C719.481 88.878 715.414 87.7098 710.779 86.6954L696.02 83.4369C685.358 81.0699 676.907 77.4735 670.737 72.6472C664.537 67.8209 661.467 61.427 661.467 53.4037C661.467 46.8254 663.535 41.0464 667.71 36.097C671.843 31.1479 677.514 27.3053 684.681 24.5693C691.883 21.8029 700.013 20.45 709.067 20.45C718.267 20.45 726.324 21.8029 733.278 24.5693C740.229 27.3053 745.687 31.1172 749.642 35.9739C753.601 40.8309 755.669 46.3948 755.777 52.6965H733.17Z" fill="url(#paint8_linear_355_635)"/>
</g>
<path d="M605.399 20.45H625.699V135H605.399V20.45Z" fill="url(#paint9_linear_355_635)"/>
<defs>
<linearGradient id="paint0_linear_355_635" x1="63.0982" y1="7" x2="63.0982" y2="128.68" gradientUnits="userSpaceOnUse">
<stop stop-color="white"/>
<stop offset="1" stop-color="white" stop-opacity="0.45"/>
</linearGradient>
<linearGradient id="paint1_linear_355_635" x1="63.0982" y1="7" x2="63.0982" y2="128.68" gradientUnits="userSpaceOnUse">
<stop stop-color="white"/>
<stop offset="1" stop-color="white" stop-opacity="0"/>
</linearGradient>
<linearGradient id="paint2_linear_355_635" x1="93.9592" y1="25.6392" x2="93.9592" y2="147.288" gradientUnits="userSpaceOnUse">
<stop stop-color="white" stop-opacity="0.45"/>
<stop offset="1" stop-color="white"/>
</linearGradient>
<linearGradient id="paint3_linear_355_635" x1="93.9592" y1="25.6392" x2="93.9592" y2="147.288" gradientUnits="userSpaceOnUse">
<stop stop-color="white"/>
<stop offset="1" stop-color="white" stop-opacity="0"/>
</linearGradient>
<linearGradient id="paint4_linear_355_635" x1="377.369" y1="19.0479" x2="377.369" y2="134.041" gradientUnits="userSpaceOnUse">
<stop stop-color="white"/>
<stop offset="0.677083" stop-color="white" stop-opacity="0.59"/>
<stop offset="1" stop-color="white" stop-opacity="0.66"/>
</linearGradient>
<linearGradient id="paint5_linear_355_635" x1="510.195" y1="19.0959" x2="510.195" y2="134.09" gradientUnits="userSpaceOnUse">
<stop stop-color="white"/>
<stop offset="0.677083" stop-color="white" stop-opacity="0.59"/>
<stop offset="1" stop-color="white" stop-opacity="0.66"/>
</linearGradient>
<linearGradient id="paint6_linear_355_635" x1="477.115" y1="85.1531" x2="477.115" y2="134.177" gradientUnits="userSpaceOnUse">
<stop stop-color="white"/>
<stop offset="0.677083" stop-color="white" stop-opacity="0.59"/>
<stop offset="1" stop-color="white" stop-opacity="0.66"/>
</linearGradient>
<linearGradient id="paint7_linear_355_635" x1="269.658" y1="19" x2="269.658" y2="134.042" gradientUnits="userSpaceOnUse">
<stop stop-color="white"/>
<stop offset="0.677083" stop-color="white" stop-opacity="0.59"/>
<stop offset="1" stop-color="white" stop-opacity="0.66"/>
</linearGradient>
<linearGradient id="paint8_linear_355_635" x1="707.803" y1="20.45" x2="707.803" y2="135.449" gradientUnits="userSpaceOnUse">
<stop stop-color="white"/>
<stop offset="0.677083" stop-color="white" stop-opacity="0.59"/>
<stop offset="1" stop-color="white" stop-opacity="0.66"/>
</linearGradient>
<linearGradient id="paint9_linear_355_635" x1="615.549" y1="20.45" x2="615.549" y2="135" gradientUnits="userSpaceOnUse">
<stop stop-color="white"/>
<stop offset="1" stop-color="white" stop-opacity="0.29"/>
</linearGradient>
<clipPath id="clip0_355_635">
<rect width="571.3" height="116" fill="white" transform="translate(211 19)"/>
</clipPath>
</defs>
</svg>
