<svg width="207" height="42" viewBox="0 0 207 42" fill="none" xmlns="http://www.w3.org/2000/svg">
<mask id="mask0_357_2991" style="mask-type:luminance" maskUnits="userSpaceOnUse" x="0" y="0" width="42" height="42">
<path d="M36.9065 0L0 4.10712L4.10712 41.0136L41.0137 36.9065L36.9065 0Z" fill="white"/>
</mask>
<g mask="url(#mask0_357_2991)">
<path d="M7.98547 33.9519C8.01837 33.9848 8.05538 34.0176 8.08824 34.0505L9.38716 32.2049C10.4641 30.088 10.8834 28.156 10.8957 26.5118C10.8793 25.6322 10.7559 24.7608 10.534 23.914C10.3778 23.4043 10.2627 22.8781 10.1887 22.3479C10.1887 22.3438 10.1887 22.3356 10.1887 22.3273C10.1394 21.9738 10.1065 21.6121 10.0901 21.2504C9.86399 15.4217 14.3938 10.4274 20.2061 10.0986L20.1649 10.0616C21.5502 9.97523 23.5684 10.2794 25.262 9.8355C27.0172 9.33812 28.612 8.37216 29.8781 7.04033C29.9397 6.97457 30.0096 6.91701 30.0836 6.8677L31.2756 5.17826C26.2855 1.71723 19.7004 0.767704 13.658 3.23812C4.17092 7.11024 -0.375308 17.9455 3.50091 27.4326C4.47099 29.8044 5.87266 31.8679 7.58265 33.5655C7.71417 33.697 7.84574 33.8244 7.98137 33.9519H7.98547Z" fill="white" stroke="white" stroke-width="0.0563375" stroke-miterlimit="10"/>
<path d="M32.1471 8.38828C32.1183 8.47459 32.0854 8.56501 32.0361 8.64722C30.9139 10.7477 30.4371 13.921 30.5398 15.1747C30.7084 17.2587 31.3455 18.6111 31.1482 20.206C31.2962 25.9895 26.7746 30.9015 21.0076 31.2181C21.0076 31.2181 20.9994 31.2181 20.9953 31.2181C19.7251 31.3003 19.5771 31.177 18.4139 31.2304C16.0133 31.3372 13.4525 32.3402 11.6767 34.2146L10.4888 35.904C10.83 36.1301 11.1752 36.3439 11.5246 36.5576C11.6849 36.6481 11.8453 36.7344 12.0056 36.8207C16.6957 39.2952 22.4052 39.7515 27.6954 37.5894C37.1825 33.7132 41.7287 22.8778 37.8525 13.3907C36.792 10.797 35.2094 8.56911 33.2775 6.78516L32.1471 8.38828Z" fill="white" stroke="white" stroke-width="0.0563375" stroke-miterlimit="10"/>
</g>
<g clip-path="url(#clip0_357_2991)">
<path d="M113.019 5.03906V9.89906H91.9128V17.7173H108.886V22.5773H91.9128V30.6069H113.019V35.4669H86.6902V9.89906H86.688V5.03906H113.019Z" fill="white"/>
<path d="M126.167 5.05273H119.332L143.813 35.4806H150.668L138.426 20.2771L150.648 5.07595L143.813 5.08651L135.004 16.0272L126.167 5.05273Z" fill="white"/>
<path d="M133.181 26.787L129.758 22.5312L119.313 35.5032H126.167L133.181 26.787Z" fill="white"/>
<path fill-rule="evenodd" clip-rule="evenodd" d="M86.8736 35.4678L62.3598 5.02734H55.8315V35.4551H61.0542V11.5313L80.3127 35.4678H86.8736Z" fill="white"/>
<path d="M194 13.9427C193.85 12.682 193.189 11.6978 192.038 10.9982C190.877 10.2906 189.378 9.94082 187.537 9.94082C186.246 9.94082 185.133 10.1117 184.208 10.4451C183.283 10.7868 182.566 11.2422 182.075 11.8197C181.585 12.3973 181.34 13.0562 181.32 13.7964C181.32 14.4146 181.49 14.9514 181.82 15.3988C182.151 15.8542 182.594 16.2366 183.17 16.5457C183.735 16.8629 184.368 17.1231 185.057 17.3346C185.755 17.5461 186.453 17.7251 187.151 17.8715L190.368 18.5629C191.661 18.8232 192.916 19.173 194.114 19.6203C195.312 20.0596 196.397 20.6208 197.349 21.2959C198.303 21.9711 199.057 22.7844 199.614 23.7362C200.17 24.6878 200.454 25.8021 200.454 27.0873C200.454 28.8198 199.944 30.3409 198.915 31.6586C197.887 32.9682 196.406 33.9931 194.463 34.7333C192.528 35.4654 190.189 35.8395 187.434 35.8395C184.774 35.8395 182.453 35.4817 180.5 34.7659C178.538 34.0582 177.009 33.017 175.905 31.6505C174.801 30.284 174.207 28.6165 174.122 26.6562H180.236C180.321 27.681 180.698 28.5352 181.34 29.2266C181.99 29.9098 182.839 30.4141 183.878 30.7558C184.925 31.0892 186.094 31.2601 187.387 31.2601C188.736 31.2601 189.925 31.0811 190.953 30.7313C191.972 30.3816 192.774 29.8936 193.35 29.2592C193.935 28.6328 194.227 27.8926 194.237 27.0467C194.227 26.274 193.962 25.6313 193.453 25.127C192.934 24.6227 192.217 24.1998 191.302 23.8581C190.378 23.5165 189.302 23.2074 188.076 22.939L184.17 22.0768C181.349 21.4505 179.113 20.4988 177.48 19.2218C175.84 17.9447 175.027 16.2529 175.027 14.1299C175.027 12.3892 175.575 10.8601 176.679 9.55043C177.773 8.24089 179.273 7.2241 181.17 6.50015C183.076 5.76815 185.227 5.41016 187.622 5.41016C190.057 5.41016 192.189 5.76815 194.029 6.50015C195.868 7.2241 197.312 8.23275 198.359 9.51785C199.406 10.803 199.954 12.2753 199.982 13.9427H194Z" fill="white"/>
</g>
<path d="M160.191 5.41016H165.563V35.7206H160.191V5.41016Z" fill="white"/>
<defs>
<clipPath id="clip0_357_2991">
<rect width="151.168" height="30.6941" fill="white" transform="translate(55.8315 5.02734)"/>
</clipPath>
</defs>
</svg>
