<svg width="638" height="69" viewBox="0 0 638 69" fill="none" xmlns="http://www.w3.org/2000/svg">
<mask id="mask0_310_536" style="mask-type:luminance" maskUnits="userSpaceOnUse" x="0" y="0" width="69" height="69">
<path d="M62.0903 0L0 6.90968L6.90968 69L69 62.0903L62.0903 0Z" fill="white"/>
</mask>
<g mask="url(#mask0_310_536)">
<path d="M13.1441 57.2766C13.1994 57.3319 13.2617 57.3872 13.317 57.4426L15.5022 54.3376C17.3141 50.7761 18.0195 47.5258 18.0402 44.7597C18.0125 43.2798 17.805 41.8137 17.4316 40.3892C17.1688 39.5317 16.9752 38.6465 16.8507 37.7544C16.8507 37.7475 16.8507 37.7337 16.8507 37.7198C16.7678 37.1251 16.7124 36.5166 16.6848 35.908C16.3044 26.102 23.9252 17.6998 33.7036 17.1466L33.6344 17.0844C35.9649 16.9391 39.3603 17.4509 42.2095 16.704C45.1624 15.8672 47.8455 14.2421 49.9754 12.0015C50.0792 11.8909 50.1968 11.794 50.3212 11.7111L52.3267 8.86883C43.9314 3.04611 32.8529 1.44866 22.6873 5.6048C6.72662 12.1191 -0.921805 30.3481 5.59941 46.3088C7.23144 50.2989 9.58956 53.7705 12.4664 56.6265C12.6877 56.8478 12.909 57.0622 13.1372 57.2766H13.1441Z" fill="url(#paint0_linear_310_536)" stroke="white" stroke-width="0.25" stroke-miterlimit="10"/>
<path d="M53.7936 14.2674C53.7452 14.4126 53.6899 14.5647 53.6069 14.703C51.719 18.2367 50.9169 23.5755 51.0897 25.6847C51.3733 29.1907 52.4451 31.4659 52.1132 34.1491C52.3622 43.879 44.7552 52.1429 35.0529 52.6754C35.0529 52.6754 35.0391 52.6754 35.0322 52.6754C32.8953 52.8137 32.6464 52.6063 30.6894 52.6961C26.6507 52.8759 22.3425 54.5633 19.355 57.7167L17.3564 60.5589C17.9305 60.9393 18.5113 61.2989 19.0992 61.6585C19.3688 61.8106 19.6385 61.9558 19.9083 62.1011C27.7987 66.2641 37.4042 67.0317 46.3043 63.3943C62.265 56.8731 69.9134 38.644 63.3922 22.6833C61.608 18.3198 58.9456 14.5716 55.6954 11.5703L53.7936 14.2674Z" fill="url(#paint1_linear_310_536)" stroke="white" stroke-width="0.25" stroke-miterlimit="10"/>
</g>
<mask id="mask1_310_536" style="mask-type:luminance" maskUnits="userSpaceOnUse" x="97" y="16" width="541" height="36">
<path d="M637.935 16.5039H97.499V51.0039H637.935V16.5039Z" fill="white"/>
</mask>
<g mask="url(#mask1_310_536)">
<path d="M116.207 37.1638L120.662 32.6827H107.777V37.1638H116.207ZM123.671 18.7832H99.603V51.5771H123.671V46.6966H104.853V23.6638H123.671V18.7832Z" fill="#FAFAFA"/>
<path d="M385.251 37.1638L389.705 32.6827H376.82V37.1638H385.251ZM392.714 18.7832H368.647V51.5771H392.714V46.6966H373.897V23.6638H392.714V18.7832Z" fill="#FAFAFA"/>
<path d="M139.767 17.6074H145.426L145.898 17.8445L154.623 29.2266L163.347 17.8445L163.819 17.6074H169.479L169.714 17.8445L157.689 33.2578L171.128 50.568L170.894 50.8053H165.234L164.762 50.568L154.623 37.289L144.483 50.568L144.012 50.8053H138.352L138.116 50.568L151.557 33.2578L139.531 17.8445L139.767 17.6074Z" fill="#FAFAFA"/>
<path d="M185.966 17.6074H211.669L211.905 17.8445L193.276 46.0627H211.905L212.14 46.3473V50.568L211.905 50.8053H184.551L184.315 50.568L202.944 22.35H185.966L185.73 22.1128V17.8445L185.966 17.6074Z" fill="#FAFAFA"/>
<path d="M246.353 16.8965C255.974 16.8965 263.803 24.6742 263.803 34.2067C263.803 43.7392 255.974 51.5172 246.353 51.5172C236.731 51.5172 228.903 43.7392 228.903 34.2067C228.903 24.6742 236.731 16.8965 246.353 16.8965ZM246.353 21.8761C239.703 21.8761 234.326 27.3774 234.326 34.2067C234.326 41.036 239.703 46.5375 246.353 46.5375C253.003 46.5375 258.379 41.036 258.379 34.2067C258.379 27.3774 253.003 21.8761 246.353 21.8761Z" fill="#FAFAFA"/>
<path d="M531.699 16.8965C541.32 16.8965 549.148 24.6742 549.148 34.2067C549.148 43.7392 541.32 51.5172 531.699 51.5172C522.077 51.5172 514.249 43.7392 514.249 34.2067C514.249 24.6742 522.077 16.8965 531.699 16.8965ZM531.699 21.8761C525.049 21.8761 519.672 27.3774 519.672 34.2067C519.672 41.036 525.049 46.5375 531.699 46.5375C538.348 46.5375 543.725 41.036 543.725 34.2067C543.725 27.3774 538.348 21.8761 531.699 21.8761Z" fill="#FAFAFA"/>
<path d="M611.178 17.6074H615.422L615.659 17.8445V29.2266L629.098 17.8445L629.57 17.6074H635.702L635.937 17.8445L619.195 31.8351L637.823 50.568L637.588 50.8053H631.457L630.985 50.568L615.659 34.9177V50.568L615.422 50.8053H611.178L610.942 50.568V17.8445L611.178 17.6074Z" fill="#FAFAFA"/>
<path d="M411.054 17.6074H436.993L437.229 17.8445V22.1128L436.993 22.35H426.382V50.568L426.147 50.8053H421.902L421.666 50.568V22.35H411.054L410.819 22.1128V17.8445L411.054 17.6074Z" fill="#FAFAFA"/>
<path d="M453.593 17.6074H458.309L458.545 17.8445L466.09 42.9801L473.4 18.3188L473.637 18.0817H478.353L478.589 18.3188L485.898 42.9801L493.444 17.8445L493.68 17.6074H498.397L498.631 17.8445L488.493 50.568L488.257 50.8053H483.776L483.541 50.568L475.994 26.144L468.449 50.568L468.213 50.8053H463.732L463.497 50.568L453.357 17.8445L453.593 17.6074Z" fill="#FAFAFA"/>
<path d="M340.183 45.4247L319.154 18.7832H314.287V51.5771H319.154V24.9643L340.183 51.5771H345.021V18.7832H340.183V45.4247Z" fill="#FAFAFA"/>
<path d="M589.574 36.596C589.982 36.2721 590.334 35.919 590.628 35.5949C592.238 33.7695 593.116 31.3259 593.116 28.7643C593.116 23.7884 589.691 18.7832 583.103 18.7832H564.307V52.5539H569.312V22.9641H583.103C587.144 22.9641 588.929 25.8789 588.929 28.7348C588.929 30.2659 588.403 31.738 587.494 32.7685C586.529 33.8578 585.182 34.4762 583.483 34.5351H578.271H570.748V38.7159H580.76L588.988 52.4951H594.2L585.797 38.3921C587.435 38.0092 588.665 37.3027 589.574 36.5372V36.596Z" fill="#FAFAFA"/>
</g>
<defs>
<linearGradient id="paint0_linear_310_536" x1="27.7991" y1="3.27539" x2="27.7991" y2="57.4426" gradientUnits="userSpaceOnUse">
<stop stop-color="white"/>
<stop offset="1" stop-color="white" stop-opacity="0.45"/>
</linearGradient>
<linearGradient id="paint1_linear_310_536" x1="41.5383" y1="11.5703" x2="41.5383" y2="65.7236" gradientUnits="userSpaceOnUse">
<stop stop-color="white" stop-opacity="0.45"/>
<stop offset="1" stop-color="white"/>
</linearGradient>
</defs>
</svg>
