<svg width="152" height="30" viewBox="0 0 903 95" fill="none" xmlns="http://www.w3.org/2000/svg">
<g clip-path="url(#clip0_478_518)">
<path d="M148.382 50.3497L154.827 43.8623H136.19V50.3497H148.382ZM159.179 23.7394H124.367V71.2164H159.179V64.1507H131.961V30.8053H159.179V23.7394Z" fill="#FAFAFA"/>
<path d="M537.521 50.3497L543.964 43.8623H525.327V50.3497H537.521ZM548.316 23.7394H513.506V71.2164H548.316V64.1507H521.1V30.8053H548.316V23.7394Z" fill="#FAFAFA"/>
<path d="M182.459 22.0339H190.644L191.326 22.3771L203.946 38.8554L216.565 22.3771L217.247 22.0339H225.433L225.773 22.3771L208.38 44.6916L227.819 69.7523L227.48 70.0958H219.294L218.611 69.7523L203.946 50.5277L189.28 69.7523L188.598 70.0958H180.412L180.071 69.7523L199.512 44.6916L182.117 22.3771L182.459 22.0339Z" fill="#FAFAFA"/>
<path d="M249.279 22.0339H286.455L286.797 22.3771L259.852 63.2297H286.797L287.136 63.6417V69.7523L286.797 70.0958H247.233L246.891 69.7523L273.836 28.8999H249.279L248.938 28.5565V22.3771L249.279 22.0339Z" fill="#FAFAFA"/>
<path d="M336.621 21.004C350.537 21.004 361.861 32.2641 361.861 46.0647C361.861 59.8653 350.537 71.1257 336.621 71.1257C322.705 71.1257 311.382 59.8653 311.382 46.0647C311.382 32.2641 322.705 21.004 336.621 21.004ZM336.621 28.2132C327.003 28.2132 319.226 36.1777 319.226 46.0647C319.226 55.9517 327.003 63.9164 336.621 63.9164C346.24 63.9164 354.015 55.9517 354.015 46.0647C354.015 36.1777 346.24 28.2132 336.621 28.2132Z" fill="#FAFAFA"/>
<path d="M749.342 21.004C763.258 21.004 774.58 32.2641 774.58 46.0647C774.58 59.8653 763.258 71.1257 749.342 71.1257C735.426 71.1257 724.103 59.8653 724.103 46.0647C724.103 32.2641 735.426 21.004 749.342 21.004ZM749.342 28.2132C739.724 28.2132 731.947 36.1777 731.947 46.0647C731.947 55.9517 739.724 63.9164 749.342 63.9164C758.959 63.9164 766.736 55.9517 766.736 46.0647C766.736 36.1777 758.959 28.2132 749.342 28.2132Z" fill="#FAFAFA"/>
<path d="M864.297 22.0339H870.436L870.778 22.3771V38.8554L890.217 22.3771L890.9 22.0339H899.769L900.108 22.3771L875.893 42.6318L902.837 69.7523L902.496 70.0958H893.629L892.946 69.7523L870.778 47.0946V69.7523L870.436 70.0958H864.297L863.956 69.7523V22.3771L864.297 22.0339Z" fill="#FAFAFA"/>
<path d="M574.842 22.0339H612.36L612.702 22.3771V28.5565L612.36 28.8999H597.013V69.7523L596.672 70.0958H590.533L590.191 69.7523V28.8999H574.842L574.503 28.5565V22.3771L574.842 22.0339Z" fill="#FAFAFA"/>
<path d="M636.369 22.0339H643.191L643.532 22.3771L654.445 58.7669L665.018 23.0638L665.36 22.7205H672.182L672.523 23.0638L683.095 58.7669L694.009 22.3771L694.351 22.0339H701.173L701.512 22.3771L686.848 69.7523L686.507 70.0958H680.026L679.685 69.7523L668.77 34.3926L657.857 69.7523L657.516 70.0958H651.035L650.694 69.7523L636.028 22.3771L636.369 22.0339Z" fill="#FAFAFA"/>
<path d="M472.336 62.3091L441.92 23.7391H434.881V71.2161H441.92V32.6877L472.336 71.2161H479.334V23.7391H472.336V62.3091Z" fill="#FAFAFA"/>
<path d="M833.051 49.5274C833.642 49.0585 834.151 48.5472 834.575 48.0781C836.904 45.4354 838.174 41.8976 838.174 38.1891C838.174 30.9853 833.22 23.7391 823.691 23.7391H796.505V72.6303H803.744V29.7919H823.691C829.536 29.7919 832.118 34.0118 832.118 38.1464C832.118 40.363 831.357 42.4943 830.043 43.9861C828.647 45.5632 826.698 46.4585 824.241 46.5437H816.703H805.821V52.5965H820.303L832.203 72.5452H839.742L827.588 52.1276C829.958 51.5734 831.737 50.5505 833.051 49.4422V49.5274Z" fill="#FAFAFA"/>
<path opacity="0.1" fill-rule="evenodd" clip-rule="evenodd" d="M38.4226 71.913C34.4334 71.913 30.5737 71.3675 26.9087 70.3418C27.3406 74.8878 28.2048 79.3972 29.5009 83.8121C42.8943 80.5611 55.0852 73.484 64.5686 63.3886L64.3668 63.1776C57.1372 68.6618 48.1579 71.913 38.4155 71.913H38.4226Z" fill="black"/>
<path opacity="0.3" fill-rule="evenodd" clip-rule="evenodd" d="M35.0195 8.77368C35.0622 8.70066 35.1116 8.62764 35.154 8.55462L35.0195 8.77368Z" fill="#A4A4A4"/>
<path fill-rule="evenodd" clip-rule="evenodd" d="M61.5569 11.8701L41.2076 0C35.267 7.24428 30.8025 15.4996 27.9583 24.2712C43.6126 27.5734 57.4452 35.8868 67.7278 47.488C73.827 54.3685 78.6731 62.3984 81.9134 71.2137V23.7404H81.9062L61.5641 11.8701H61.5569Z" fill="url(#paint0_linear_478_518)"/>
<path fill-rule="evenodd" clip-rule="evenodd" d="M27.9349 70.6688C18.9915 72.5673 9.68095 72.7928 0.5 71.2146L20.8565 83.0845L41.213 94.9547L61.5623 83.0845L81.9188 71.2146C78.6785 62.3918 73.8324 54.3621 67.7334 47.4886C57.0763 59.5335 43.0275 67.4758 27.9493 70.6688H27.9349Z" fill="url(#paint1_linear_478_518)"/>
<path fill-rule="evenodd" clip-rule="evenodd" d="M0.5 23.7445V71.225C9.68095 72.8032 18.9915 72.5705 27.9349 70.6795C22.9375 55.3326 23.1536 39.0767 27.9493 24.2827C30.8007 15.5109 35.258 7.25563 41.1986 0.0113478L20.8421 11.8815L0.5 23.7445Z" fill="url(#paint2_linear_478_518)"/>
<path opacity="0.3" fill-rule="evenodd" clip-rule="evenodd" d="M11.7278 41.3419C9.06354 51.3718 8.47307 61.94 10.0284 72.2101C16.0627 72.4355 22.0753 71.9119 27.9366 70.6682C22.9394 55.3213 23.1553 39.0654 27.9512 24.2712C30.8027 15.4996 35.2599 7.24427 41.2006 0C26.223 9.76814 16.1491 24.6858 11.7278 41.3419Z" fill="url(#paint3_linear_478_518)"/>
</g>
<defs>
<linearGradient id="paint0_linear_478_518" x1="90.6768" y1="63.9039" x2="32.4198" y2="0.167205" gradientUnits="userSpaceOnUse">
<stop stop-color="white"/>
<stop offset="1" stop-color="white"/>
</linearGradient>
<linearGradient id="paint1_linear_478_518" x1="87.5425" y1="60.0499" x2="-1.37708" y2="89.4866" gradientUnits="userSpaceOnUse">
<stop stop-color="white"/>
<stop offset="1" stop-color="white"/>
</linearGradient>
<linearGradient id="paint2_linear_478_518" x1="2.33619" y1="80.5059" x2="32.2486" y2="-1.6664" gradientUnits="userSpaceOnUse">
<stop stop-color="white"/>
<stop offset="1" stop-color="white"/>
</linearGradient>
<linearGradient id="paint3_linear_478_518" x1="25.19" y1="0" x2="25.19" y2="72.2611" gradientUnits="userSpaceOnUse">
<stop stop-color="white"/>
<stop offset="1" stop-color="white" stop-opacity="0.49"/>
</linearGradient>
<clipPath id="clip0_478_518">
<rect width="902.5" height="95" fill="white" transform="translate(0.5)"/>
</clipPath>
</defs>
</svg>
