<svg width="160" height="33" viewBox="0 0 160 33" fill="none" xmlns="http://www.w3.org/2000/svg">
<g clip-path="url(#clip0_854_2)">
<path d="M39.545 29H32.7271L40.4081 5.72699H49.045L56.7271 29H49.9081L44.8181 12.136H44.6361L39.545 29ZM38.272 19.818H51.09V24.545H38.272V19.818ZM58.968 5.72699H66.8321L72.24 18.91H72.5121L77.922 5.72799H85.7851V29H79.603V15.545H79.422L74.24 28.818H70.5121L65.3311 15.454H65.1491V29H58.967L58.968 5.72699ZM88.78 29V5.72699H95.1V23.909H104.509V28.999H88.781L88.78 29ZM107.062 29V5.72699H117.153C118.925 5.72699 120.414 5.96599 121.619 6.44299C122.831 6.91999 123.744 7.59399 124.357 8.46599C124.978 9.33599 125.289 10.363 125.289 11.546C125.289 12.401 125.1 13.182 124.721 13.886C124.347 14.5936 123.81 15.2015 123.153 15.659C122.478 16.129 121.691 16.454 120.789 16.636V16.863C121.789 16.901 122.698 17.155 123.516 17.625C124.327 18.0795 125.002 18.7423 125.471 19.545C125.956 20.355 126.198 21.31 126.198 22.409C126.198 23.682 125.865 24.814 125.198 25.807C124.539 26.799 123.6 27.579 122.38 28.147C121.16 28.716 119.706 29 118.016 29H107.062ZM113.38 23.954H116.335C117.395 23.954 118.191 23.757 118.721 23.364C119.251 22.962 119.516 22.371 119.516 21.591C119.516 21.045 119.391 20.583 119.141 20.204C118.891 19.826 118.535 19.538 118.073 19.341C117.619 19.144 117.069 19.045 116.425 19.045H113.38V23.954ZM113.38 15.136H115.971C116.524 15.136 117.013 15.049 117.437 14.875C117.861 14.7 118.191 14.45 118.425 14.125C118.668 13.791 118.789 13.386 118.789 12.909C118.789 12.189 118.531 11.639 118.016 11.261C117.501 10.875 116.85 10.681 116.062 10.681H113.38V15.136ZM136.937 29.318C135.043 29.318 133.422 28.943 132.073 28.193C130.753 27.4642 129.675 26.3659 128.971 25.033C128.251 23.678 127.891 22.106 127.891 20.318C127.891 18.53 128.251 16.962 128.971 15.613C129.671 14.2773 130.75 13.1783 132.073 12.454C133.422 11.697 135.043 11.318 136.937 11.318C138.831 11.318 140.452 11.697 141.8 12.454C143.123 13.1782 144.203 14.2776 144.903 15.614C145.622 16.962 145.982 18.53 145.982 20.318C145.982 22.106 145.622 23.678 144.903 25.034C144.199 26.3668 143.12 27.4648 141.8 28.193C140.452 28.943 138.831 29.318 136.937 29.318ZM136.982 24.682C137.513 24.682 137.971 24.504 138.357 24.148C138.744 23.791 139.043 23.284 139.255 22.625C139.467 21.965 139.573 21.182 139.573 20.273C139.573 19.356 139.467 18.572 139.255 17.92C139.043 17.261 138.744 16.754 138.357 16.397C137.986 16.0466 137.492 15.855 136.982 15.863C136.422 15.863 135.941 16.041 135.539 16.398C135.138 16.754 134.831 17.261 134.619 17.92C134.406 18.572 134.3 19.356 134.3 20.272C134.3 21.182 134.406 21.966 134.619 22.625C134.831 23.284 135.138 23.791 135.539 24.148C135.941 24.504 136.422 24.682 136.982 24.682ZM158.937 11.545V16.091H147.437V11.545H158.937ZM149.664 7.36299H155.937V23.386C155.937 23.629 155.978 23.833 156.062 24C156.145 24.159 156.274 24.28 156.448 24.363C156.622 24.439 156.846 24.477 157.119 24.477C157.308 24.477 157.528 24.454 157.778 24.409C158.035 24.363 158.225 24.326 158.346 24.295L159.255 28.705C158.975 28.788 158.573 28.89 158.05 29.011C157.535 29.132 156.922 29.211 156.21 29.25C154.77 29.326 153.562 29.178 152.585 28.807C151.607 28.427 150.872 27.833 150.38 27.023C149.888 26.212 149.649 25.197 149.664 23.977V7.36299Z" fill="white"/>
<path fill-rule="evenodd" clip-rule="evenodd" d="M14.555 1.54302C13.125 -0.561976 9.98902 -0.502976 8.64002 1.65502L0.531024 14.63C0.177816 15.1948 -0.00638722 15.8488 0.000169114 16.5149C0.00672545 17.181 0.203768 17.8313 0.568024 18.389L9.05502 31.403C10.445 33.533 13.581 33.533 14.97 31.403L23.432 18.428C23.8085 17.8514 24.006 17.1762 23.9996 16.4876C23.9932 15.7989 23.7832 15.1276 23.396 14.558L14.555 1.54302ZM15.523 9.23002C15.218 14.667 10.928 19.046 5.51102 19.524L12.013 29.494L20.475 16.52L15.523 9.23002Z" fill="white"/>
</g>
<defs>
<clipPath id="clip0_854_2">
<rect width="160" height="33" fill="white"/>
</clipPath>
</defs>
</svg>
