<svg width="160" height="51" viewBox="0 0 160 51" fill="none" xmlns="http://www.w3.org/2000/svg">
<g clip-path="url(#clip0_10_10707)">
<path d="M158.133 39.3163C158.267 39.3163 158.347 39.2135 158.347 39.0848V38.9046C158.347 38.7759 158.267 38.6988 158.133 38.6988H157.573V39.3163H158.133ZM157.573 39.5995V40.2943H157.2V38.3899H158.107C158.507 38.3899 158.747 38.6215 158.747 39.0077C158.747 39.3422 158.56 39.5223 158.32 39.5995L158.747 40.32H158.32L157.92 39.6252C157.92 39.5995 157.573 39.5995 157.573 39.5995ZM157.787 40.9634C158.72 41.0407 159.52 40.3973 159.627 39.4964C159.627 39.3936 159.627 39.2906 159.627 39.1878C159.547 38.4156 158.907 37.7722 158.08 37.7208C157.147 37.6437 156.347 38.2869 156.24 39.1878C156.24 39.2906 156.24 39.3936 156.24 39.4964C156.32 40.2686 156.987 40.912 157.787 40.9634ZM79.3333 29.254L79.0133 29.357C76.64 30.0519 74.1067 30.0261 71.7333 29.3313L71.4133 29.2283L75.0933 17.6219C75.1733 17.3388 75.6 17.3388 75.68 17.6219L79.3333 29.254ZM70.9067 12.475L60.6933 41.3237H67.5733L69.8133 34.2981L70.1333 34.4011C73.52 35.4046 77.2533 35.4046 80.6133 34.4268L80.9333 34.3238L83.12 41.3237H90L79.84 12.475C79.2 10.6478 77.4133 9.43824 75.44 9.43824H75.3333C73.3067 9.43824 71.5467 10.6735 70.9067 12.475ZM141.707 17.4161H134.4L127.28 26.6548V9.43824H121.12V41.3494H127.28V29.8717L135.627 41.3494H142.507L133.387 28.9454C133.067 28.5078 133.093 27.9158 133.413 27.5041L141.707 17.4161ZM109.387 17.4161H99.4933C96.4533 17.4161 93.9733 19.8094 93.9733 22.7431V41.3494H100.133V24.1071C100.133 23.3609 100.773 22.7431 101.547 22.7431H107.973C108.747 22.7431 109.387 23.3609 109.387 24.1071V41.3494H115.547V22.7431C115.547 19.8094 113.067 17.4161 110.027 17.4161H109.387ZM160 17.4161H151.627C148.587 17.4161 146.107 19.8094 146.107 22.7431V41.3494H152.267V24.1071C152.267 23.3609 152.907 22.7431 153.68 22.7431H160V17.4161ZM28.2667 0.791347L45.5733 9.36105C48.08 10.5963 49.6533 13.0926 49.6533 15.8205V19.7322H43.28V15.8205C43.28 15.4087 43.04 15.0227 42.6667 14.8426L25.36 6.27286C25.04 6.11845 24.64 6.11845 24.32 6.27286L7.01333 14.8426C6.64 15.0227 6.4 15.4087 6.4 15.8205V19.7322H0V15.8205C0 13.0926 1.57333 10.5963 4.08 9.36105L21.3867 0.791347C23.5467 -0.263782 26.1067 -0.263782 28.2667 0.791347ZM30.2933 25.2395C30.2933 22.3315 27.84 19.9638 24.8267 19.9638C21.8133 19.9638 19.36 22.3315 19.36 25.2395C19.36 28.1475 21.8133 30.5151 24.8267 30.5151C27.84 30.4894 30.2933 28.1475 30.2933 25.2395ZM42.6667 36.151C43.04 35.9709 43.28 35.5847 43.28 35.1731V31.2614H49.6533V35.1988C49.6533 37.9267 48.08 40.423 45.5733 41.6325L28.2667 50.2022C27.2 50.7168 26.0267 51 24.8267 51C23.6267 51 22.4533 50.7168 21.3867 50.2022L4.08 41.6325C1.57333 40.3973 0 37.901 0 35.1988V31.2871H6.37333V35.1988C6.37333 35.6106 6.61333 35.9966 6.98667 36.1767L21.6267 43.4081V36.2282C16.6667 34.8899 12.9867 30.4635 12.9867 25.2395C12.9867 18.9344 18.2933 13.8132 24.8267 13.8132C31.36 13.8132 36.6667 18.9344 36.6667 25.2395C36.6667 30.4635 32.9867 34.8899 28 36.2282V43.4081L42.6667 36.151Z" fill="#E3E4E6"/>
</g>
<defs>
<clipPath id="clip0_10_10707">
<rect width="160" height="51" fill="white"/>
</clipPath>
</defs>
</svg>
