<svg width="166" height="44" viewBox="0 0 166 44" fill="none" xmlns="http://www.w3.org/2000/svg">
<g clip-path="url(#clip0_12_2351)">
<path d="M58.9816 20.7947L62.3105 28.5554H61.4304L60.4654 26.2231H56.6898L55.6651 28.5554H54.8208L58.3183 20.7947H58.9816ZM60.1998 25.6128L58.6077 21.7865L56.9688 25.6128H60.1998Z" fill="#E3E4E6"/>
<path d="M66.5677 26.2231C66.5741 26.5123 66.6437 26.7975 66.7724 27.0623C66.8859 27.2866 67.0552 27.4841 67.267 27.6395C67.4869 27.7977 67.742 27.9111 68.0149 27.972C68.3302 28.0443 68.6545 28.0793 68.9798 28.0764C69.2957 28.0788 69.6104 28.0403 69.9142 27.9621C70.1818 27.8934 70.4346 27.7844 70.6621 27.6398C70.8666 27.5109 71.0357 27.3413 71.1564 27.144C71.275 26.945 71.3352 26.7218 71.3314 26.4958C71.3445 26.2389 71.2664 25.9849 71.1085 25.7709C70.9539 25.5811 70.7565 25.4231 70.5292 25.3075C70.2712 25.1764 69.9956 25.0758 69.7092 25.0082C69.3997 24.9318 69.086 24.8555 68.7682 24.7793C68.4504 24.7031 68.1369 24.6157 67.8278 24.5171C67.5341 24.427 67.2576 24.2965 67.008 24.1301C66.7664 23.9665 66.5684 23.756 66.4285 23.5143C66.2695 23.2214 66.193 22.8975 66.2059 22.5715C66.1947 22.2539 66.2849 21.9401 66.4658 21.6676C66.6345 21.424 66.8586 21.2157 67.1232 21.0564C67.3922 20.8955 67.69 20.7777 68.0033 20.7083C68.3108 20.6371 68.6269 20.6004 68.9443 20.5993C69.6006 20.5833 70.251 20.7144 70.8376 20.9808C71.4066 21.2773 71.826 21.7619 72.0073 22.3325L71.247 22.7022C71.1165 22.2499 70.8022 21.8585 70.3667 21.6062C69.935 21.3795 69.4426 21.2645 68.9435 21.2738C68.7173 21.2748 68.4923 21.3021 68.2739 21.3552C68.0536 21.4063 67.844 21.4892 67.6531 21.6008C67.4718 21.7061 67.3175 21.8452 67.2006 22.0089C67.0833 22.1766 67.0231 22.3718 67.0274 22.5702C67.0136 22.8209 67.0921 23.0686 67.2506 23.2747C67.4055 23.4578 67.6025 23.6083 67.8281 23.716C68.0877 23.8401 68.3631 23.9352 68.6481 23.9994C68.9576 24.0714 69.2713 24.144 69.5891 24.2173C69.9069 24.2905 70.2204 24.3739 70.5295 24.4675C70.8226 24.5546 71.0992 24.6817 71.3498 24.8443C71.5907 25.004 71.7886 25.2108 71.9288 25.4492C72.0877 25.7362 72.1644 26.0546 72.152 26.3753C72.1749 26.7078 72.1115 27.0406 71.9669 27.3472C71.8223 27.6537 71.6006 27.9255 71.3192 28.1408C70.7647 28.5482 69.985 28.7517 68.9804 28.7512C68.5809 28.7546 68.1822 28.7165 67.7923 28.6377C67.4521 28.5679 67.1291 28.442 66.8394 28.2663C66.5585 28.0921 66.3222 27.8654 66.1464 27.6017C65.9475 27.294 65.8126 26.956 65.7485 26.6044L66.5677 26.2231Z" fill="#E3E4E6"/>
<path d="M76.9514 26.2231C76.9579 26.5123 77.0276 26.7975 77.1564 27.0623C77.2698 27.2866 77.4391 27.4842 77.651 27.6395C77.8709 27.7977 78.126 27.9111 78.3989 27.972C78.7142 28.0443 79.0385 28.0793 79.3638 28.0764C79.6797 28.0788 79.9944 28.0403 80.2982 27.9621C80.5657 27.8934 80.8186 27.7844 81.0461 27.6398C81.2505 27.5108 81.4196 27.3412 81.5404 27.144C81.6589 26.945 81.719 26.7218 81.7151 26.4958C81.7283 26.2389 81.6503 25.9849 81.4924 25.7709C81.3378 25.5811 81.1404 25.4232 80.9132 25.3075C80.6552 25.1764 80.3796 25.0758 80.0932 25.0082C79.7837 24.9318 79.47 24.8555 79.1522 24.7793C78.8344 24.7031 78.5209 24.6157 78.2118 24.5171C77.9181 24.4271 77.6415 24.2965 77.392 24.1301C77.1504 23.9665 76.9524 23.756 76.8125 23.5143C76.6534 23.2214 76.5769 22.8975 76.5899 22.5715C76.5786 22.2539 76.6689 21.9401 76.8498 21.6676C77.0185 21.424 77.2426 21.2157 77.5072 21.0564C77.7762 20.8955 78.074 20.7777 78.3873 20.7083C78.6948 20.6371 79.0109 20.6004 79.3283 20.5993C79.9846 20.5833 80.635 20.7144 81.2216 20.9808C81.7906 21.2773 82.21 21.7619 82.3913 22.3325L81.6308 22.7022C81.5004 22.2498 81.1862 21.8585 80.7507 21.6062C80.319 21.3795 79.8266 21.2645 79.3275 21.2738C79.1013 21.2747 78.8762 21.3021 78.6579 21.3552C78.4376 21.4063 78.228 21.4892 78.0371 21.6008C77.8557 21.7061 77.7015 21.8452 77.5846 22.0089C77.4667 22.1764 77.4059 22.3716 77.4096 22.5702C77.396 22.8209 77.4746 23.0686 77.6331 23.2747C77.788 23.4579 77.985 23.6085 78.2106 23.716C78.4703 23.8401 78.7456 23.9352 79.0306 23.9994C79.3402 24.0714 79.6538 24.144 79.9716 24.2173C80.2895 24.2905 80.6029 24.3739 80.9121 24.4675C81.2051 24.5547 81.4818 24.6817 81.7324 24.8443C81.9727 25.0041 82.1701 25.2109 82.3099 25.4492C82.4687 25.7362 82.5454 26.0546 82.5331 26.3753C82.556 26.7077 82.4927 27.0405 82.3482 27.3469C82.2038 27.6534 81.9821 27.9252 81.7009 28.1406C81.146 28.548 80.3664 28.7514 79.3621 28.7509C78.9626 28.7543 78.5639 28.7162 78.1739 28.6374C77.8338 28.5676 77.5107 28.4417 77.2211 28.2661C76.9402 28.0918 76.7039 27.8652 76.5281 27.6014C76.3292 27.2938 76.1943 26.9557 76.1302 26.6041L76.9514 26.2231Z" fill="#E3E4E6"/>
<path d="M93.2093 26.0376C93.2178 26.4374 93.1422 26.835 92.9864 27.2092C92.848 27.5332 92.6292 27.8241 92.3468 28.0596C92.0578 28.2947 91.7166 28.4712 91.3461 28.5776C90.5007 28.809 89.5985 28.809 88.7532 28.5776C88.3824 28.4713 88.041 28.2947 87.7518 28.0596C87.4697 27.8241 87.2511 27.5331 87.1128 27.2092C86.9569 26.835 86.8812 26.4374 86.8896 26.0376V20.7947H87.7099V26.0162C87.6995 26.3438 87.7632 26.67 87.897 26.9746C88.0036 27.2162 88.1715 27.4318 88.3872 27.604C88.6028 27.7763 88.8602 27.9003 89.1386 27.9662C89.735 28.1113 90.3633 28.1113 90.9597 27.9662C91.238 27.9002 91.4953 27.7761 91.711 27.6038C91.9266 27.4316 92.0945 27.2161 92.2013 26.9746C92.3347 26.6699 92.3982 26.3438 92.3881 26.0162V20.7947H93.2082L93.2093 26.0376Z" fill="#E3E4E6"/>
<path d="M97.8647 20.7947H101.663C102.053 20.7858 102.441 20.849 102.803 20.9805C103.098 21.0897 103.363 21.255 103.581 21.4651C103.782 21.665 103.934 21.901 104.027 22.1576C104.123 22.4138 104.172 22.6824 104.172 22.9527C104.193 23.2366 104.143 23.5211 104.026 23.7853C103.909 24.0495 103.728 24.2865 103.496 24.479C102.969 24.8542 102.322 25.0648 101.651 25.0792L104.401 28.5565H103.364L100.638 25.112H98.6844V28.5565H97.8647V20.7947ZM98.6844 24.4354H101.229C101.589 24.4457 101.948 24.3995 102.291 24.2989C102.531 24.2263 102.751 24.1075 102.936 23.9508C103.086 23.8191 103.198 23.6561 103.262 23.4762C103.321 23.3069 103.351 23.1303 103.352 22.9527C103.362 22.755 103.328 22.5574 103.252 22.372C103.175 22.1865 103.057 22.0172 102.906 21.8742C102.609 21.6055 102.094 21.471 101.362 21.4708H98.6844V24.4354Z" fill="#E3E4E6"/>
<path d="M108.249 20.7947H113.869V21.4708H109.068V24.2175H113.4V24.8941H109.068V27.8804H114.121V28.5562H108.249V20.7947Z" fill="#E3E4E6"/>
<path d="M124.965 20.7947H128.341C128.737 20.789 129.131 20.8463 129.505 20.9638C129.829 21.0674 130.129 21.2225 130.392 21.4217C130.641 21.6152 130.855 21.8434 131.025 22.0976C131.198 22.3548 131.337 22.629 131.441 22.9149C131.545 23.2022 131.62 23.4976 131.664 23.7974C131.707 24.0885 131.729 24.3818 131.73 24.6755C131.726 25.1122 131.667 25.547 131.555 25.9718C131.443 26.4203 131.243 26.8469 130.964 27.2314C130.679 27.6195 130.299 27.9438 129.855 28.1797C129.323 28.4459 128.72 28.5758 128.112 28.5555H124.965L124.965 20.7947ZM125.784 27.8796H128.064C128.532 27.8934 128.996 27.7956 129.409 27.596C129.763 27.4174 130.065 27.1651 130.289 26.8601C130.515 26.5478 130.677 26.2008 130.766 25.8361C130.862 25.4554 130.91 25.066 130.91 24.6755C130.908 24.3033 130.864 23.9324 130.777 23.5685C130.695 23.2029 130.544 22.8527 130.331 22.5334C130.123 22.226 129.841 21.9653 129.505 21.7709C129.122 21.5607 128.68 21.4564 128.233 21.4708H125.784L125.784 27.8796Z" fill="#E3E4E6"/>
<path d="M136.06 20.7947H141.68V21.4708H136.88V24.2175H141.211V24.8941H136.88V27.8804H141.933V28.5562H136.06V20.7947Z" fill="#E3E4E6"/>
<path d="M146.227 20.7947H151.823V21.4708H147.047V24.0654H151.317V24.7402H147.047V28.5554H146.227V20.7947Z" fill="#E3E4E6"/>
<path d="M156.094 20.7947H156.914V28.5554H156.094V20.7947Z" fill="#E3E4E6"/>
<path d="M19.4034 9.954L23.8934 0H24.4547L40.6603 35.8538C41.5548 37.8323 42.7856 39.6724 44.3083 41.3076C45.6879 42.7657 46.9039 43.4948 47.9563 43.4948V44.0021H28.1728V43.4948C29.4818 43.4948 30.4406 42.6284 31.0493 40.8955C31.3077 40.1683 31.4379 39.4088 31.435 38.6449C31.4078 37.3754 31.1348 36.1201 30.6283 34.9358L28.5935 30.4345L28.3481 29.9272H28.3833L19.6492 10.6205L19.4034 9.954Z" fill="#E3E4E6"/>
<path d="M162.367 17.6075H161.613V19.597H161.153V17.6075H160.403V17.2829H162.368L162.367 17.6075Z" fill="#E3E4E6"/>
<path d="M166 17.2829V19.597H165.541L165.554 17.7782H165.548L164.785 19.597H164.422L163.704 17.7782H163.697L163.71 19.597H163.275V17.2829H163.903L164.615 19.1077H164.625L165.37 17.2829H166Z" fill="#E3E4E6"/>
<path d="M23.4995 32.3916C17.0086 32.3916 11.7477 37.5662 11.7477 43.9515C11.7477 37.5662 6.48976 32.3916 -0.00115967 32.3916C6.48976 32.3916 11.7477 27.2145 11.7477 20.8292C11.7477 27.2145 17.0086 32.3916 23.4995 32.3916Z" fill="#E3E4E6"/>
</g>
<defs>
<clipPath id="clip0_12_2351">
<rect width="166" height="44" fill="white"/>
</clipPath>
</defs>
</svg>
