<svg width="182" height="53" viewBox="0 0 182 53" fill="none" xmlns="http://www.w3.org/2000/svg">
<g clip-path="url(#clip0_10_10725)">
<path fill-rule="evenodd" clip-rule="evenodd" d="M37.4529 12.541L37.6831 13.8365C37.8557 15.0284 37.9419 16.2202 37.9131 17.438C37.9131 20.1068 37.568 22.7496 36.8776 25.3406C35.9571 28.8384 34.3463 32.1808 32.1313 35.1865C29.5711 38.6065 25.8603 41.9489 20.4812 44.6953L19.8195 45.0322L19.1579 44.6953C13.7787 42.0007 10.068 38.6325 7.50784 35.1865C5.26411 32.1808 3.68201 28.8643 2.7615 25.3406C2.07113 22.7496 1.72593 20.1068 1.72593 17.438C1.72593 16.2461 1.78347 15.0284 1.95606 13.8365L2.15742 12.541C2.18619 12.4374 2.18619 12.3337 2.15742 12.2301C2.12866 12.1264 2.09989 12.0228 2.01359 11.9451C1.95606 11.8674 1.86976 11.7896 1.78347 11.7378C1.69717 11.686 1.58211 11.6601 1.49581 11.6342C1.38075 11.6082 1.26569 11.6082 1.15063 11.6342C1.03556 11.6601 0.920502 11.7119 0.834205 11.7637C0.747907 11.8155 0.66161 11.8933 0.604078 11.971C0.546548 12.0746 0.517782 12.1783 0.489015 12.2819L0.258892 13.5774C0.0862975 14.847 0 16.1425 0 17.438C0 20.2363 0.373954 23.0087 1.0931 25.7292C1.58211 27.5689 2.24372 29.3825 3.07792 31.1186C3.91212 32.8544 4.91892 34.5128 6.09831 36.0932C8.8023 39.7207 12.7144 43.2704 18.3525 46.0686L19.4169 46.6127C19.5606 46.6646 19.7045 46.6905 19.8483 46.6905C19.9922 46.6905 20.1359 46.6646 20.2799 46.6127L21.3441 46.0686C26.9534 43.2445 30.8943 39.6948 33.5984 36.0932C35.9571 32.9322 37.6543 29.4084 38.6035 25.7292C39.3226 23.0087 39.6679 20.2363 39.6679 17.438C39.6679 16.1425 39.5816 14.847 39.4089 13.5515L39.1789 12.256C39.1501 12.1524 39.1212 12.0487 39.0638 11.9451C39.0063 11.8674 38.92 11.7896 38.8336 11.7378C38.7473 11.686 38.6324 11.6342 38.5173 11.6082C38.4022 11.5823 38.2871 11.5823 38.172 11.6082C38.057 11.6342 37.9419 11.6601 37.8268 11.7119C37.7406 11.7637 37.6543 11.8414 37.5967 11.9192C37.5392 11.9969 37.4817 12.1005 37.4529 12.2042V12.541Z" fill="#E3E4E6"/>
<path fill-rule="evenodd" clip-rule="evenodd" d="M6.99001 11.6599L19.8771 8.00663L33.0229 11.7377C33.138 11.7636 33.2531 11.7636 33.3682 11.7636C33.4831 11.7636 33.5982 11.7377 33.7133 11.6859C33.8284 11.634 33.9147 11.5822 34.001 11.4786C34.0872 11.4009 34.1447 11.2972 34.1447 11.1936C34.1735 11.0899 34.1735 10.9863 34.1735 10.8826C34.1735 10.779 34.1447 10.6754 34.0872 10.5717C34.0298 10.4681 33.9722 10.3904 33.8859 10.3126C33.7996 10.2349 33.6845 10.1831 33.5696 10.1831L20.1359 6.34839C19.9634 6.29657 19.7906 6.29657 19.6181 6.34839L6.50098 10.0794C6.38592 10.1053 6.29962 10.1572 6.18456 10.209C6.09827 10.2867 6.01198 10.3644 5.98321 10.4681C5.92568 10.5717 5.89691 10.6754 5.89691 10.779C5.89691 10.8826 5.89691 10.9863 5.92568 11.0899C5.95444 11.1936 6.01198 11.2972 6.06951 11.3749C6.12704 11.4527 6.24209 11.5304 6.35715 11.5822C6.44345 11.634 6.55852 11.6599 6.70235 11.6599C6.75988 11.6859 6.87494 11.6859 6.99001 11.6599Z" fill="#E3E4E6"/>
<path fill-rule="evenodd" clip-rule="evenodd" d="M0.632621 12.7741L19.0714 46.2498C19.1289 46.3794 19.244 46.483 19.3591 46.5608C19.6467 46.7162 19.9919 46.7162 20.2795 46.5608C20.4234 46.483 20.5385 46.3794 20.6248 46.2498L31.8721 26.6878L31.9009 26.6619L39.0923 12.7482C39.1499 12.6446 39.1785 12.5409 39.1785 12.4373C39.1785 12.3336 39.1785 12.23 39.1211 12.1264C39.0923 12.0227 39.0348 11.9191 38.9485 11.8414C38.8909 11.7636 38.776 11.6859 38.6897 11.6341C38.6034 11.5822 38.4883 11.5563 38.3444 11.5563C38.2293 11.5563 38.1143 11.5563 37.9992 11.5822C37.8842 11.6082 37.7691 11.66 37.6828 11.7377C37.5965 11.8154 37.5102 11.8932 37.4814 11.9968L30.29 25.9104L19.8193 44.1253L2.1572 11.9968C2.09966 11.9191 2.01338 11.8154 1.95585 11.7377C1.86955 11.66 1.75449 11.6082 1.63942 11.5822C1.52436 11.5304 1.4093 11.5304 1.29423 11.5563C1.17917 11.5563 1.06411 11.5822 0.949045 11.6341C0.862749 11.6859 0.747686 11.7636 0.690155 11.8414C0.632623 11.9191 0.575093 12.0227 0.546326 12.1264C0.51756 12.23 0.488796 12.3336 0.51756 12.4373C0.546326 12.5668 0.575091 12.6705 0.632621 12.7741Z" fill="#E3E4E6"/>
<path fill-rule="evenodd" clip-rule="evenodd" d="M9.46357 27.6981H30.0022C30.1173 27.6981 30.2324 27.6722 30.3475 27.6463C30.4626 27.6204 30.5489 27.5427 30.6063 27.4649C30.6926 27.3872 30.7501 27.3095 30.7789 27.2058C30.8652 26.9985 30.8652 26.7912 30.7789 26.584C30.7501 26.4803 30.6638 26.4026 30.6063 26.3248C30.52 26.2473 30.4338 26.1955 30.3475 26.1436C30.2324 26.1177 30.1173 26.0918 30.0022 26.0918H9.46357C9.34851 26.0918 9.23344 26.1177 9.11838 26.1436C9.00331 26.1696 8.91701 26.2473 8.85948 26.3248C8.77318 26.4026 8.71565 26.4803 8.68689 26.584C8.60059 26.7912 8.60059 26.9985 8.68689 27.2058C8.71565 27.3095 8.77318 27.3872 8.85948 27.4649C8.94578 27.5427 9.03208 27.5945 9.11838 27.6463C9.23344 27.6722 9.34851 27.6722 9.46357 27.6981ZM66.7072 20.7284H53.36C53.2449 20.7284 53.1298 20.7543 53.0147 20.7802C52.8996 20.8061 52.8134 20.8838 52.7559 20.9616C52.6696 21.0393 52.612 21.117 52.5833 21.2207C52.5545 21.3243 52.5257 21.4279 52.5257 21.5316V31.5069C52.5257 31.6105 52.5545 31.7142 52.5833 31.8178C52.612 31.9215 52.6696 31.9992 52.7559 32.0769C52.8422 32.1547 52.9285 32.2065 53.0147 32.2583C53.1298 32.2842 53.2449 32.3101 53.36 32.3101H66.7072V33.9944H53.36C53.1873 33.9944 53.0147 33.9685 52.8422 33.9425C52.6696 33.9166 52.497 33.8648 52.3243 33.813C52.1518 33.7612 52.008 33.6834 51.8641 33.6057C51.7203 33.5021 51.6052 33.3984 51.4615 33.2948C51.2025 33.0616 51.0299 32.8025 50.8862 32.5174C50.8285 32.362 50.7711 32.2065 50.7423 32.051C50.7134 31.8956 50.6848 31.7401 50.6848 31.5846V21.5575C50.6848 21.402 50.7134 21.2466 50.7423 21.0911C50.7711 20.9356 50.8285 20.7802 50.8862 20.6247C50.9436 20.4693 51.0299 20.3138 51.1162 20.1843C51.2025 20.0547 51.3176 19.9251 51.4615 19.8215C51.5764 19.7179 51.7203 19.6142 51.8641 19.5106C52.008 19.4329 52.1518 19.3551 52.3243 19.3033C52.497 19.2515 52.6696 19.1997 52.8422 19.1738C53.0147 19.1478 53.1873 19.1219 53.36 19.1219H66.7072V20.7284ZM91.7622 19.0442V20.7284H78.9039V25.6772H89.2307V27.3872H78.9039V32.3361H91.7622V34.0203H77.1205V19.0442H91.7622Z" fill="#E3E4E6"/>
<path d="M118.256 21.5838V25.9626C118.256 26.1181 118.227 26.2735 118.198 26.429C118.169 26.5845 118.112 26.7399 118.054 26.8954C117.997 27.0509 117.91 27.2063 117.824 27.3357C117.709 27.4653 117.623 27.5948 117.479 27.6985C117.364 27.8021 117.22 27.9058 117.076 28.0094C116.932 28.0871 116.788 28.1649 116.616 28.2167C116.443 28.2685 116.271 28.3203 116.098 28.3722C115.925 28.3981 115.753 28.424 115.58 28.424H113.135L118.169 33.9947H115.753L110.748 28.424H104.88C104.592 28.424 104.304 28.3981 104.017 28.3463V33.9947H102.204V19.0705H115.609C115.782 19.0705 115.954 19.0964 116.127 19.1223C116.3 19.1482 116.472 19.2 116.645 19.2519C116.817 19.3037 116.961 19.3814 117.105 19.4851C117.393 19.6664 117.623 19.8996 117.824 20.1587C117.91 20.2883 117.997 20.4437 118.054 20.5992C118.112 20.7546 118.169 20.9101 118.198 21.0656C118.227 21.2469 118.256 21.4283 118.256 21.5838ZM104.851 26.7658H115.58C115.695 26.7658 115.81 26.7399 115.925 26.714C116.041 26.6881 116.127 26.6363 116.184 26.5326C116.271 26.4549 116.328 26.3772 116.357 26.2735C116.386 26.1699 116.414 26.0662 116.414 25.9626V21.5838C116.414 21.3765 116.328 21.1692 116.184 21.0137C116.041 20.8583 115.81 20.7546 115.58 20.7546H104.851C104.736 20.7546 104.621 20.7806 104.506 20.8065C104.39 20.8324 104.304 20.9101 104.247 20.9878C104.16 21.0656 104.103 21.1433 104.074 21.2469C104.045 21.3506 104.017 21.4542 104.017 21.5579V25.9367C104.017 26.144 104.103 26.3513 104.304 26.5067C104.419 26.6622 104.649 26.7658 104.851 26.7658Z" fill="#E3E4E6"/>
<path fill-rule="evenodd" clip-rule="evenodd" d="M127.863 19.0442H143.914V20.7284H136.809V33.9944H134.997V20.7284H127.863V19.0442ZM153.695 34.0203V19.0701H155.507V34.0203H153.695ZM179.641 19.0442H181.971L175.269 26.5321L182 34.0203H179.641L173.658 27.3872H168.48V34.0203H166.668V19.0701H168.509V25.7031H173.687L179.641 19.0442Z" fill="#E3E4E6"/>
</g>
<defs>
<clipPath id="clip0_10_10725">
<rect width="182" height="53" fill="white"/>
</clipPath>
</defs>
</svg>
