<svg width="182" height="31" viewBox="0 0 182 31" fill="none" xmlns="http://www.w3.org/2000/svg">
<g clip-path="url(#clip0_10_10776)">
<path d="M30.8122 15.4412V15.3813C30.7818 6.91193 23.868 0 15.4061 0C6.94417 0 0 6.91193 0 15.4412C0 23.9716 6.91275 30.8696 15.4061 30.8696C19.3034 30.8722 23.0517 29.392 25.8711 26.737C26.1488 26.4866 26.3143 26.1377 26.3313 25.7669C26.3482 25.3962 26.2152 25.0339 25.9615 24.7599C25.7078 24.4859 25.3542 24.3226 24.9785 24.3058C24.6027 24.2891 24.2356 24.4203 23.9579 24.6707L23.9276 24.7006C22.7111 25.8417 21.2734 26.7285 19.7009 27.3078C18.1285 27.887 16.4536 28.1467 14.7768 28.0714C13.1001 27.996 11.4561 27.5871 9.94346 26.8691C8.43087 26.1512 7.08089 25.1391 5.97458 23.8935L12.5558 13.4797V18.2986C12.5558 20.6011 13.4658 21.3504 14.2307 21.56C14.9955 21.7695 16.1428 21.6177 17.3853 19.6732L20.9961 13.888C21.0925 13.7191 21.2041 13.5588 21.3276 13.408V16.3423C21.3276 18.4963 22.2073 20.2323 23.7228 21.0693C24.4225 21.4452 25.2122 21.6271 26.0082 21.5957C26.8042 21.5642 27.5766 21.3206 28.2436 20.8908C29.9943 19.7694 30.9346 17.8058 30.8122 15.4412ZM26.8082 18.4717C26.565 18.637 26.2816 18.7351 25.9871 18.756C25.6927 18.7768 25.3979 18.7197 25.1333 18.5904C24.5267 18.2323 24.1616 17.4252 24.1616 16.3178V12.9259C24.1616 11.3118 23.5246 10.1434 22.4337 9.84624C20.5823 9.29466 19.1891 11.5512 18.6723 12.3893L15.4061 17.5652V11.1921C15.3758 9.72652 14.8893 8.85852 13.9793 8.58807C13.3727 8.40955 12.4627 8.50041 11.5841 9.81738L4.27483 21.3676C3.30246 19.5393 2.79288 17.506 2.78958 15.4412C2.78958 8.46835 8.45975 2.81245 15.4061 2.81245C22.3524 2.81245 28.0226 8.46835 28.0226 15.4412V15.5021C28.0952 16.8469 27.6575 17.9266 26.8093 18.4632L26.8082 18.4717ZM52.2849 10.1744C52.4859 10.3014 52.6538 10.4732 52.7751 10.676C52.8965 10.8787 52.9679 11.1068 52.9837 11.3417C52.9816 11.6852 52.8444 12.0145 52.6011 12.2602C52.3578 12.5059 52.0273 12.6487 51.6793 12.6587C51.5143 12.6463 51.3511 12.6158 51.1929 12.5678C50.3433 11.9389 49.3126 11.5937 48.2506 11.5822C45.6733 11.5822 43.9151 13.6453 43.9151 16.2183C43.9151 18.7913 45.7048 20.8277 48.2506 20.8277C49.4743 20.826 50.6492 20.3536 51.5255 19.5108C51.7487 19.3558 52.013 19.2724 52.2849 19.2713C52.5026 19.2689 52.717 19.3236 52.9061 19.4298C53.0953 19.5361 53.2525 19.69 53.3616 19.8758C53.4707 20.0617 53.5278 20.2728 53.5271 20.4876C53.5264 20.7023 53.4678 20.9131 53.3574 21.0982C53.2523 21.2799 53.1028 21.4349 52.9219 21.5471C52.034 22.2756 50.9816 22.7827 49.8534 23.0256C48.7252 23.2685 47.5544 23.2402 46.4397 22.943C45.3249 22.6457 44.299 22.0883 43.4483 21.3178C42.5977 20.5472 41.9474 19.5861 41.5521 18.5155C41.1569 17.4449 41.0284 16.2962 41.1775 15.1663C41.3265 14.0364 41.7488 12.9585 42.4086 12.0234C43.0684 11.0884 43.9465 10.3236 44.9687 9.79359C45.9909 9.26361 47.1273 8.98396 48.282 8.97824C49.7098 8.95686 51.1095 9.37376 52.2849 10.1744ZM59.5021 13.1579C58.1416 13.1522 56.8342 13.679 55.8666 14.6227C54.899 15.5665 54.35 16.8503 54.34 18.1927C54.3484 19.5426 54.8934 20.8354 55.8577 21.7929C56.822 22.7504 58.1287 23.2963 59.4967 23.3131C62.166 23.3131 64.441 20.9485 64.441 18.1927C64.441 15.4391 62.2018 13.1579 59.5021 13.1579ZM59.4718 20.8192C58.1988 20.8192 57.1372 19.6818 57.1372 18.2152C57.1372 16.6898 58.1988 15.7608 59.4718 15.7608C60.6558 15.7608 61.6547 16.7197 61.6547 18.2152C61.6547 19.7117 60.6558 20.8277 59.4718 20.8277V20.8192ZM66.144 21.7556V14.6919C66.1405 14.5087 66.1741 14.3267 66.2427 14.1565C66.3113 13.9863 66.4136 13.8313 66.5436 13.7005C66.6736 13.5698 66.8287 13.4659 66.9999 13.3949C67.171 13.324 67.3548 13.2874 67.5404 13.2872C67.914 13.292 68.2704 13.4424 68.532 13.7055C68.7936 13.9687 68.9392 14.3233 68.9368 14.6919V21.7556C68.9394 22.1244 68.7941 22.4792 68.5324 22.7426C68.2708 23.006 67.9142 23.1565 67.5404 23.1613C67.1687 23.1505 66.8156 22.9981 66.5552 22.736C66.2949 22.4739 66.1475 22.1226 66.144 21.7556ZM65.9317 10.6234C65.9256 10.4101 65.9626 10.1979 66.0405 9.99887C66.1183 9.79987 66.2355 9.61814 66.3852 9.46426C66.5349 9.31037 66.7142 9.18739 66.9125 9.10249C67.1108 9.01758 67.3243 8.97244 67.5404 8.96969C67.7579 8.9722 67.9727 9.01698 68.1727 9.10146C68.3726 9.18594 68.5537 9.30847 68.7056 9.46205C68.8575 9.61562 68.9773 9.79724 69.0581 9.9965C69.1388 10.1958 69.179 10.4088 69.1763 10.6234C69.1763 11.0478 69.0054 11.4548 68.7013 11.7549C68.3971 12.055 67.9846 12.2236 67.5545 12.2236C67.1244 12.2236 66.7119 12.055 66.4078 11.7549C66.1036 11.4548 65.9317 11.0478 65.9317 10.6234ZM74.2723 17.9266V21.7556C74.2723 22.121 74.1251 22.4715 73.8632 22.7299C73.6014 22.9883 73.2462 23.1335 72.8758 23.1335C72.5055 23.1335 72.1503 22.9883 71.8884 22.7299C71.6265 22.4715 71.4794 22.121 71.4794 21.7556V14.3637C71.4794 14.0819 71.5929 13.8116 71.7948 13.6124C71.9968 13.4131 72.2707 13.3011 72.5563 13.3011C72.8418 13.3011 73.1157 13.4131 73.3177 13.6124C73.5196 13.8116 73.6331 14.0819 73.6331 14.3637C74.031 13.9624 74.5102 13.6484 75.0394 13.4421C75.5686 13.2358 76.1359 13.1419 76.7043 13.1664C79.4961 13.1664 80.7387 15.2317 80.7387 17.5962V21.7556C80.7387 22.121 80.5915 22.4715 80.3297 22.7299C80.0678 22.9883 79.7126 23.1335 79.3423 23.1335C78.9719 23.1335 78.6167 22.9883 78.3548 22.7299C78.093 22.4715 77.9458 22.121 77.9458 21.7556V17.9266C77.9458 16.7282 77.7952 15.7223 76.0359 15.7223C74.7944 15.7223 74.2777 16.7389 74.2777 17.9266H74.2723ZM89.7704 19.3921C89.6287 19.3924 89.4889 19.3599 89.3623 19.2972C89.2356 19.2344 89.1257 19.1432 89.0413 19.0308L85.7968 15.5599V21.7556C85.8019 21.9397 85.7697 22.123 85.7019 22.2946C85.6341 22.4661 85.5321 22.6226 85.4019 22.7546C85.2718 22.8867 85.1162 22.9916 84.9442 23.0633C84.7723 23.1349 84.5875 23.1719 84.4009 23.1719C84.2142 23.1719 84.0295 23.1349 83.8575 23.0633C83.6856 22.9916 83.5299 22.8867 83.3998 22.7546C83.2697 22.6226 83.1677 22.4661 83.0999 22.2946C83.0321 22.123 82.9998 21.9397 83.005 21.7556V9.48493C83.0481 9.38317 83.1194 9.29552 83.2109 9.23215C83.3024 9.16877 83.4101 9.13225 83.5218 9.12683C83.7623 9.16711 83.9787 9.29488 84.1284 9.48493L89.3154 15.2317C89.3683 15.3057 89.4359 15.3684 89.5142 15.4158C89.5924 15.4632 89.6796 15.4944 89.7704 15.5075C89.9509 15.4729 90.1126 15.3749 90.2254 15.2317L95.4103 9.48493C95.4821 9.38857 95.5726 9.30728 95.6766 9.2458C95.7805 9.18432 95.8959 9.14388 96.0158 9.12683C96.1295 9.12406 96.241 9.15735 96.334 9.22182C96.4271 9.28628 96.4967 9.37851 96.5326 9.48493V21.7567C96.536 21.9398 96.5025 22.1218 96.4339 22.292C96.3652 22.4622 96.263 22.6172 96.133 22.748C96.003 22.8787 95.8479 22.9826 95.6767 23.0536C95.5056 23.1246 95.3218 23.1612 95.1362 23.1613C94.7627 23.1559 94.4065 23.0052 94.1452 22.7419C93.8838 22.4786 93.7385 22.1241 93.7408 21.7556V15.5599L90.493 19.0308C90.3056 19.2369 90.0465 19.3659 89.7672 19.3921H89.7704ZM116.003 15.7117H115.699C113.941 15.7993 113.608 16.7892 113.608 17.9159V21.7449C113.608 22.1103 113.461 22.4606 113.199 22.7189C112.937 22.9772 112.582 23.1225 112.212 23.1228C111.841 23.1222 111.487 22.9767 111.225 22.7181C110.963 22.4596 110.816 22.1092 110.816 21.7438V14.3648C110.817 14.0828 110.931 13.8126 111.133 13.6133C111.335 13.4139 111.609 13.3017 111.894 13.3011C112.18 13.3017 112.454 13.414 112.655 13.6134C112.857 13.8127 112.971 14.0829 112.971 14.3648C114.001 13.4059 114.851 13.1964 115.699 13.1654H115.978C116.319 13.1743 116.642 13.3137 116.88 13.554C117.117 13.7943 117.251 14.1166 117.251 14.4524C117.251 14.7806 117.121 15.0956 116.889 15.3307C116.657 15.5658 116.341 15.7025 116.009 15.7117H116.003ZM126.77 21.0971C126.897 21.2949 126.971 21.5215 126.982 21.7556C126.967 22.1162 126.815 22.4581 126.556 22.7133C126.297 22.9685 125.951 23.1185 125.585 23.1335C125.102 23.1335 124.675 22.7722 124.343 22.3531L121.13 18.6673V21.7246C121.13 22.0899 120.983 22.4402 120.721 22.6985C120.459 22.9568 120.104 23.1019 119.734 23.1019C119.364 23.1019 119.009 22.9568 118.747 22.6985C118.485 22.4402 118.338 22.0899 118.338 21.7246V10.5058C118.337 10.2332 118.419 9.96652 118.572 9.73968C118.725 9.51283 118.943 9.33601 119.199 9.23167C119.454 9.12733 119.735 9.10017 120.006 9.15364C120.277 9.2071 120.525 9.33878 120.72 9.53197C120.982 9.78959 121.13 10.1413 121.13 10.5047V17.5064L124.343 14.0067C124.675 13.6464 125.072 13.2584 125.555 13.2584C125.909 13.2738 126.244 13.4215 126.492 13.6716C126.74 13.9218 126.882 14.2555 126.89 14.6053C126.891 14.8273 126.828 15.045 126.708 15.2328L124.162 17.9875L126.77 21.1014V21.0971ZM143.633 23.2821H142.873C140.751 23.2821 139.506 22.3531 139.506 19.0917V15.7117H138.78C138.438 15.7117 138.11 15.5775 137.868 15.3388C137.626 15.1 137.49 14.7762 137.49 14.4385C137.49 14.1009 137.626 13.777 137.868 13.5383C138.11 13.2995 138.438 13.1654 138.78 13.1654H139.495V10.5624C139.489 10.2863 139.567 10.0147 139.719 9.78312C139.872 9.55155 140.092 9.37085 140.35 9.26472C140.521 9.19417 140.705 9.15783 140.891 9.15783C141.264 9.16401 141.619 9.31482 141.881 9.57766C142.142 9.8405 142.288 10.1943 142.287 10.5624V13.1579H143.438C143.775 13.168 144.094 13.3085 144.327 13.5491C144.56 13.7898 144.688 14.1112 144.682 14.4439C144.671 14.769 144.537 15.0783 144.307 15.3112C144.077 15.5441 143.767 15.6839 143.438 15.7031H142.287V18.5466C142.287 20.4311 142.376 20.8192 143.225 20.8192H143.622C143.952 20.8206 144.267 20.9507 144.5 21.181C144.733 21.4113 144.864 21.7232 144.864 22.0485C144.857 22.3714 144.724 22.679 144.492 22.9073C144.261 23.1357 143.949 23.2672 143.622 23.2746L143.633 23.2821ZM157.127 10.1744C157.327 10.3017 157.495 10.4736 157.616 10.6763C157.737 10.879 157.808 11.1069 157.824 11.3417C157.823 11.6853 157.685 12.0147 157.442 12.2605C157.199 12.5062 156.868 12.649 156.52 12.6587C156.355 12.6456 156.193 12.6151 156.035 12.5678C155.186 11.9385 154.156 11.5932 153.094 11.5822C150.515 11.5822 148.756 13.6453 148.756 16.2183C148.756 18.7913 150.545 20.8277 153.094 20.8277C154.318 20.826 155.493 20.3536 156.369 19.5108C156.592 19.3568 156.856 19.2734 157.127 19.2713C157.29 19.2698 157.453 19.3004 157.605 19.3613C157.756 19.4223 157.894 19.5123 158.011 19.6262C158.203 19.8161 158.327 20.0639 158.361 20.3305C158.396 20.5972 158.34 20.8676 158.201 21.0992C158.095 21.2819 157.944 21.4355 157.763 21.5461C156.875 22.2732 155.824 22.779 154.696 23.0208C153.569 23.2627 152.4 23.2335 151.286 22.9357C149.606 22.4874 148.147 21.4531 147.18 20.0245C146.214 18.5959 145.805 16.8699 146.029 15.1665C146.253 13.4627 147.095 11.8968 148.399 10.7589C149.703 9.62097 151.382 8.98833 153.123 8.97824C154.552 8.95138 155.953 9.36996 157.127 10.1744ZM107.239 13.2573C107.097 13.2573 106.957 13.2853 106.826 13.3397C106.695 13.3941 106.576 13.4738 106.477 13.5742C106.378 13.6745 106.3 13.7934 106.248 13.9238C106.197 14.0543 106.172 14.1937 106.175 14.3338L106.117 14.6651C105.717 14.1976 105.22 13.8195 104.66 13.5563C104.1 13.2931 103.49 13.1507 102.87 13.1387C100.142 13.1387 98.1717 15.4113 98.1717 18.1628C98.1717 20.9154 100.111 23.2821 102.72 23.2821C103.812 23.2821 105.539 22.8021 106.087 21.7556L106.148 22.0838C106.145 22.2247 106.172 22.3646 106.226 22.495C106.28 22.6254 106.361 22.7434 106.463 22.8418C106.566 22.9402 106.687 23.0168 106.821 23.067C106.954 23.1172 107.096 23.1398 107.239 23.1335C107.383 23.1338 107.525 23.1061 107.657 23.052C107.79 22.998 107.911 22.9186 108.012 22.8185C108.113 22.7184 108.194 22.5995 108.249 22.4686C108.303 22.3378 108.331 22.1975 108.331 22.056V14.3423C108.327 14.0571 108.211 13.7846 108.007 13.5822C107.804 13.3799 107.528 13.2634 107.239 13.2573ZM103.175 20.8277C101.932 20.8277 100.96 19.6626 100.96 18.2237C100.96 16.786 101.96 15.7437 103.175 15.7437C104.388 15.7437 105.481 16.7304 105.481 18.2237C105.481 19.7171 104.418 20.8277 103.175 20.8277ZM136.96 17.9843C136.899 14.9014 134.866 13.1654 132.169 13.1654C128.819 13.1654 127.405 15.5599 127.405 18.3146C127.405 21.8165 129.743 23.312 132.563 23.312C133.624 23.312 134.746 23.1613 135.594 22.5327C135.771 22.4309 135.918 22.2874 136.024 22.1151C136.13 21.9429 136.191 21.7473 136.201 21.5461C136.203 21.2499 136.087 20.9647 135.878 20.752C135.669 20.5392 135.384 20.416 135.084 20.4087C134.827 20.4108 134.576 20.4835 134.358 20.6182C133.783 20.8606 133.163 20.9826 132.537 20.9763C131.84 20.9763 130.232 20.7005 130.232 19.0618H135.865C136.153 19.0563 136.428 18.9412 136.632 18.7404C136.837 18.5395 136.954 18.2686 136.96 17.9843ZM130.225 17.2894C130.225 16.1243 131.471 15.7362 132.227 15.7362C132.985 15.7362 134.229 16.1243 134.26 17.2894H130.225ZM168.253 13.2573C168.111 13.2574 167.97 13.2854 167.839 13.3397C167.709 13.3941 167.59 13.4736 167.491 13.5737C167.392 13.674 167.314 13.793 167.262 13.9236C167.211 14.0542 167.187 14.1937 167.191 14.3338L167.13 14.6651C166.731 14.1975 166.234 13.8194 165.675 13.5562C165.115 13.2929 164.505 13.1506 163.886 13.1387C161.156 13.1387 159.184 15.4113 159.184 18.1628C159.184 20.9154 161.138 23.2821 163.732 23.2821C164.824 23.2821 166.555 22.8021 167.099 21.7556L167.161 22.0838C167.159 22.2245 167.186 22.3641 167.24 22.4941C167.294 22.6242 167.375 22.7421 167.477 22.8406C167.579 22.9391 167.701 23.0159 167.834 23.0663C167.967 23.1167 168.11 23.1395 168.253 23.1335C168.469 23.1334 168.68 23.0702 168.859 22.9519C169.039 22.8335 169.179 22.6654 169.262 22.4686C169.316 22.3382 169.344 22.1981 169.344 22.056V14.3423C169.34 14.0573 169.224 13.7851 169.02 13.5828C168.816 13.3806 168.541 13.2639 168.253 13.2573ZM164.187 20.8277C162.976 20.8277 161.974 19.6626 161.974 18.2237C161.974 16.786 162.945 15.7437 164.187 15.7437C165.429 15.7437 166.493 16.7304 166.493 18.2237C166.493 19.7171 165.438 20.8277 164.193 20.8277H164.187ZM177.295 13.1579C176.687 13.1469 176.084 13.258 175.521 13.4844C174.958 13.7108 174.447 14.0478 174.02 14.4749C174.02 13.7886 173.565 13.2787 172.96 13.2787C172.816 13.2783 172.674 13.3058 172.541 13.3598C172.408 13.4138 172.287 13.4931 172.186 13.5932C172.084 13.6933 172.003 13.8123 171.948 13.9432C171.893 14.0741 171.865 14.2145 171.865 14.3562V25.9684C171.866 26.3333 172.014 26.683 172.275 26.941C172.537 27.199 172.891 27.3444 173.261 27.3452C173.631 27.3449 173.986 27.1998 174.247 26.9417C174.509 26.6836 174.657 26.3335 174.657 25.9684V22.475C175.413 23.0416 176.628 23.2821 177.449 23.3013C180.088 23.3013 182 20.9378 182 18.1831C182 15.4273 179.996 13.1579 177.295 13.1579ZM176.96 20.8192C175.718 20.8192 174.657 19.7181 174.657 18.2162C174.657 16.7143 175.718 15.7362 176.96 15.7362C178.203 15.7362 179.175 16.7229 179.175 18.2162C179.175 19.6615 178.206 20.8277 176.96 20.8277V20.8192Z" fill="#E3E4E6"/>
</g>
<defs>
<clipPath id="clip0_10_10776">
<rect width="182" height="31" fill="white"/>
</clipPath>
</defs>
</svg>
