<svg width="143" height="46" viewBox="0 0 143 46" fill="none" xmlns="http://www.w3.org/2000/svg">
<g clip-path="url(#clip0_10_10709)">
<path d="M54.9465 5.55562C54.7766 5.47797 54.6067 5.41585 54.4539 5.3382C53.2989 4.85676 52.1101 4.43745 50.9211 4.03367C50.5985 3.94049 50.2928 3.84731 49.9701 3.7386C48.9001 3.41247 47.8301 3.1174 46.7261 2.86892C46.3014 2.77573 45.8599 2.68256 45.4183 2.57385C44.4331 2.35642 43.4141 2.1856 42.4121 2.06135C41.9025 1.9837 41.376 1.92159 40.8835 1.87499C39.9324 1.76629 38.9643 1.68863 37.9962 1.62651C37.4526 1.59546 36.9092 1.56439 36.3317 1.54886C35.8392 1.53333 35.3636 1.53334 34.8541 1.53334C34.3955 1.53334 33.9539 1.53333 33.4783 1.54886C32.9349 1.56439 32.3574 1.57992 31.8139 1.62651C30.8458 1.68863 29.8777 1.76629 28.9266 1.87499C28.4 1.93711 27.8906 1.9837 27.398 2.06135C26.3959 2.21666 25.3769 2.38749 24.3918 2.57385C23.9502 2.66703 23.5256 2.76021 23.084 2.86892C21.997 3.1174 20.91 3.41247 19.84 3.7386C19.5173 3.83178 19.2116 3.92496 18.8719 4.03367C17.666 4.42192 16.4941 4.84124 15.3392 5.32267C15.1694 5.40032 14.9995 5.46243 14.8297 5.54008C13.5049 6.09917 12.1971 6.72037 10.9403 7.37263C10.9403 8.70818 11.0082 9.99724 11.1271 11.2862C11.1441 11.5036 11.1611 11.69 11.195 11.9074C11.3139 13.0411 11.4838 14.1593 11.7216 15.2619C11.7895 15.6036 11.8744 15.9297 11.9254 16.2869C12.1292 17.2653 12.4179 18.2281 12.6897 19.1754C12.8086 19.5948 12.9614 20.0451 13.1143 20.4645C13.403 21.3341 13.7257 22.1728 14.0824 23.0114C14.2862 23.4928 14.507 23.9742 14.7108 24.4402C15.8487 23.5394 17.0546 22.7008 18.3114 21.9553C19.5343 21.2255 20.8251 20.5887 22.1669 20.0296C23.4747 19.4705 24.8334 19.0046 26.2431 18.6474C27.2452 18.3834 28.2981 18.1505 29.3512 17.9797C29.7588 17.9175 30.1494 17.8709 30.5571 17.8088C31.8818 17.638 33.2066 17.5448 34.5823 17.5448C34.6673 17.5448 34.7522 17.5448 34.8371 17.5448C34.939 17.5448 35.0749 17.5448 35.1768 17.5448C36.5525 17.5603 37.8942 17.6535 39.202 17.8399C39.6097 17.902 40.0173 17.9486 40.4249 18.0263C41.4779 18.1971 42.514 18.43 43.5161 18.694C44.9258 19.0823 46.2675 19.5482 47.5923 20.0917C48.934 20.6508 50.2248 21.3031 51.4477 22.033C52.7045 22.7784 53.9104 23.6171 55.0313 24.5333C55.2691 24.0519 55.4729 23.5549 55.6768 23.058C56.0165 22.2504 56.3222 21.3963 56.6278 20.5732C55.422 19.7035 54.1822 18.8959 52.8573 18.166C51.6005 17.4516 50.2758 16.8304 48.9001 16.2869C47.5752 15.7433 46.1996 15.293 44.7899 14.9047C44.2803 14.7649 43.7538 14.6407 43.2273 14.5165C42.3441 14.3301 41.444 14.1437 40.5268 14.0195C39.7456 13.9108 38.9473 13.802 38.149 13.7244C37.5036 13.6623 36.8242 13.6312 36.1449 13.6157C35.7033 13.6002 35.2617 13.6002 34.8032 13.6002C34.3785 13.6002 33.9879 13.6002 33.5633 13.6157C32.8839 13.6312 32.2215 13.6778 31.5592 13.7244C30.7609 13.7866 29.9626 13.8797 29.1814 13.9885C28.2812 14.1282 27.398 14.2991 26.5148 14.4854C25.9883 14.5941 25.4618 14.7339 24.9353 14.8736C23.5256 15.2619 22.1498 15.7278 20.8251 16.2403C19.4494 16.7838 18.1246 17.4206 16.8678 18.1039C16.8678 18.0883 16.8508 18.0418 16.8508 18.0263C16.4432 16.7218 16.1375 15.3862 15.8827 14.0195C15.8827 13.9885 15.8657 13.9574 15.8657 13.9263C15.6109 12.5597 15.4411 11.1775 15.3562 9.76429C16.7319 9.12753 18.1416 8.56844 19.5852 8.07149C19.6023 8.07149 19.6023 8.05596 19.6192 8.05596C21.0289 7.57454 22.4895 7.17074 23.9502 6.82908H23.9672C25.3769 6.50295 26.8035 6.23894 28.2642 6.03705C28.2812 6.03705 28.3321 6.03705 28.3661 6.02152C29.7588 5.83516 31.1685 5.69539 32.5952 5.63327C32.6292 5.63327 32.6971 5.63327 32.748 5.63327C33.4274 5.61774 34.1238 5.60221 34.8032 5.60221C35.5164 5.60221 36.2638 5.61774 36.9432 5.63327C36.9771 5.63327 37.0451 5.63327 37.096 5.63327C38.5226 5.71092 39.9324 5.81963 41.325 6.02152C41.359 6.02152 41.393 6.02152 41.4269 6.03705C42.8876 6.25447 44.3143 6.51848 45.724 6.84461H45.7409C47.2186 7.18627 48.6623 7.62115 50.072 8.10256C50.0889 8.10256 50.106 8.10256 50.106 8.1181C51.5666 8.61505 52.9763 9.17414 54.335 9.81082C55.7616 10.4631 57.1544 11.193 58.4961 12.0006C58.5131 11.7832 58.5301 11.5502 58.564 11.3484C58.683 10.0748 58.7509 8.78585 58.7509 7.48134C57.613 6.75143 56.3052 6.14576 54.9465 5.55562Z" fill="#E3E4E6"/>
<path d="M46.6115 23.7377C45.2767 23.1619 43.8906 22.6821 42.4532 22.3303C41.221 22.0104 39.9205 21.7705 38.6371 21.6426C38.3804 21.6266 38.1237 21.5786 37.9012 21.5626C37.1312 21.4987 36.3611 21.4667 35.5739 21.4667C34.8039 21.4667 34.0681 21.4827 33.3323 21.5466C33.0756 21.5626 32.836 21.5786 32.5964 21.6266C31.2788 21.7705 30.0124 21.9784 28.7632 22.2983C27.3258 22.6502 25.9225 23.1299 24.6049 23.7057C23.2701 24.2814 22.0039 24.9531 20.7888 25.7208C19.5568 26.5204 18.3931 27.3841 17.315 28.3597C17.7428 29.1114 18.2049 29.847 18.7011 30.5827C19.0263 31.0625 19.3343 31.5263 19.6766 31.9901C20.207 32.7258 20.7375 33.4295 21.3022 34.1331C21.6445 34.5489 21.9867 34.9648 22.346 35.3646C22.9792 36.1003 23.6466 36.788 24.314 37.4917C24.6391 37.8275 24.9643 38.1474 25.3065 38.4673C26.2134 37.3957 27.3258 36.4681 28.575 35.7164C29.9097 34.9168 31.4157 34.341 33.0242 34.0372C33.8798 33.8773 34.7355 33.7973 35.6595 33.7973C36.6007 33.7973 37.4905 33.8933 38.3462 34.0532C39.9547 34.3731 41.4435 34.9488 42.7783 35.7645C41.7344 36.756 40.6393 37.6836 39.4927 38.5792C39.4585 38.6112 39.4071 38.6432 39.3729 38.6752C39.2531 38.7711 39.1163 38.8671 38.9965 38.9471C38.7398 39.139 38.4831 39.3309 38.2093 39.5228C38.1922 39.5388 38.1579 39.5548 38.1408 39.5708C37.9012 39.7467 37.6617 39.9067 37.405 40.0826C37.3194 40.1465 37.2168 40.2105 37.1312 40.2585C36.943 40.3864 36.7547 40.5144 36.5665 40.6264C36.2756 40.8183 35.9846 40.9941 35.6937 41.1861C34.5472 40.4664 33.4178 39.6988 32.3397 38.8831C30.7483 39.267 29.4045 40.0505 28.1211 40.9302C28.2409 41.0262 28.2327 41.0262 28.3696 41.1221C28.421 41.1701 28.4723 41.218 28.5579 41.2821C29.5162 42.0337 30.5087 42.7694 31.5355 43.4571C31.7065 43.569 31.8777 43.681 32.0488 43.793C33.2296 44.5926 34.4617 45.3123 35.7451 46C36.3611 45.6641 36.9772 45.3123 37.5761 44.9605C38.175 44.6086 38.774 44.2248 39.3558 43.8409C39.544 43.729 39.7323 43.585 39.9205 43.4571C40.9131 42.7854 41.8884 42.0657 42.8297 41.314C42.9837 41.1861 43.1377 41.0582 43.2916 40.9302C43.4285 40.8182 43.5654 40.7063 43.6852 40.5943C44.4896 39.9226 45.2767 39.2189 46.0468 38.4993C46.4061 38.1634 46.7484 37.8275 47.0906 37.4757C47.7409 36.804 48.3912 36.1003 49.0072 35.4126C49.3666 34.9968 49.7259 34.565 50.0853 34.1171C35.3515 25.0171 25.6488 32.5979 25.6488 32.5979C25.6146 32.5658 25.5803 32.5179 25.5461 32.4859C24.6733 31.4623 23.852 30.3908 23.0648 29.2873C24.2455 28.4876 25.5461 27.8159 26.898 27.2881C28.3012 26.7124 29.7557 26.2806 31.2617 25.9927C32.4424 25.7688 33.6573 25.6409 34.8895 25.5929C35.1462 25.5929 35.4028 25.5769 35.6595 25.5769C35.9504 25.5769 36.2242 25.5769 36.5152 25.5929C37.7472 25.6249 38.9622 25.7688 40.1259 26.0087C41.6489 26.3125 43.1035 26.7444 44.4896 27.3202C45.8414 27.8798 47.1248 28.5516 48.3056 29.3353C49.5206 30.1349 50.6329 31.0465 51.6425 32.0541C51.9848 31.5742 52.327 31.0785 52.6351 30.5827C53.0971 29.863 53.542 29.1593 53.9698 28.4236C52.8404 27.448 51.6939 26.5525 50.4618 25.7688C49.2296 24.9852 47.9462 24.3134 46.6115 23.7377Z" fill="#E3E4E6"/>
<path d="M76.7888 20.3659V17.3075H82.1946V21.6518L78.6382 25.1272H67.0443V3.45804L70.8852 0H82.1946V9.48791H76.7888V4.7787H72.45V20.3659H76.7888Z" fill="#E3E4E6"/>
<path d="M94.3753 25.1272L91.1746 16.0391H89.7517V25.1272H84.3641V3.54493L88.2761 0H99.2834V15.9695H96.3672L99.7812 25.1272H94.3753ZM93.8955 11.3299V4.7787H89.7517V11.3299H93.8955Z" fill="#E3E4E6"/>
<path d="M101.79 0H114.273V4.7787H107.125V9.62689H113.918V14.3187H107.196V20.3659H114.452V25.1272H101.79V0Z" fill="#E3E4E6"/>
<path d="M116.443 0H127.504L131.647 3.97935V21.6518L128.037 25.1272H116.443V0ZM126.241 20.3659V4.7787H121.831V20.3659H126.241Z" fill="#E3E4E6"/>
<path d="M75.6895 46H66.7194V41.0382H70.1382V42.9788H72.2594V40.4428L66.8322 36.4403V30.0561H75.5879V34.7974H72.4851V33.0993H70.251V35.1833L75.6895 39.1748V46Z" fill="#E3E4E6"/>
<path d="M80.5864 36.6057H83.5201V30.0561H86.9388V46H83.5201V39.6269H80.5864V46H77.1676V30.0561H80.5864V36.6057Z" fill="#E3E4E6"/>
<path d="M91.8248 34.9518V46H88.4057V34.9518H91.8248ZM91.8248 30.0561V33.9815H88.4057V30.0561H91.8248Z" fill="#E3E4E6"/>
<path d="M93.0992 30.0561H101.021V33.0883H96.4844V36.1646H100.795V39.1417H96.5297V42.9788H101.133V46H93.0992V30.0561Z" fill="#E3E4E6"/>
<path d="M102.397 46V30.0561H105.815V42.9788H110.6V46H102.397Z" fill="#E3E4E6"/>
<path d="M112.078 30.0561H119.096L121.725 32.5811V43.7948L119.435 46H112.078V30.0561ZM118.295 42.9788V33.0883H115.496V42.9788H118.295Z" fill="#E3E4E6"/>
<path d="M132.06 46H123.09V41.0382H126.509V42.9788H128.63V40.4428L123.203 36.4403V30.0561H131.959V34.7974H128.856V33.0993H126.622V35.1833L132.06 39.1748V46Z" fill="#E3E4E6"/>
</g>
<defs>
<clipPath id="clip0_10_10709">
<rect width="143" height="46" fill="white"/>
</clipPath>
</defs>
</svg>
