<svg width="155" height="39" viewBox="0 0 155 39" fill="none" xmlns="http://www.w3.org/2000/svg">
<g clip-path="url(#clip0_12_2370)">
<path d="M42.5027 3.80487V8.60046C41.6189 7.9796 40.5669 7.63706 39.3887 7.63706C35.938 7.63706 33.4132 10.2489 33.4132 13.76C33.4132 17.2497 35.938 19.883 39.3887 19.883C40.7773 19.883 41.9977 19.3905 42.9445 18.577L43.3022 19.5404H45.5746V3.80487H42.5027ZM39.6411 16.9286C37.8527 16.9286 36.5482 15.5583 36.5482 13.76C36.5482 11.9403 37.8527 10.5914 39.6411 10.5914C41.4296 10.5914 42.7341 11.9403 42.7341 13.76C42.7341 15.5583 41.4296 16.9286 39.6411 16.9286Z" fill="#E3E4E6"/>
<path d="M58.9272 13.7172C58.9272 10.3774 56.5285 7.63708 53.0358 7.63708C49.6693 7.63708 47.1445 10.2703 47.1445 13.7386C47.1445 17.2068 49.6904 19.8616 53.0358 19.8616C55.687 19.8616 57.8541 18.2559 58.6746 15.7297H55.4555C54.9926 16.5646 54.1089 17.0784 53.0358 17.0784C51.542 17.0784 50.532 16.2006 50.2585 14.6164H58.864C58.9061 14.3166 58.9272 14.0169 58.9272 13.7172ZM53.0358 10.3132C54.4245 10.3132 55.4134 11.0839 55.8552 12.497H50.3427C50.7003 11.1267 51.6682 10.3132 53.0358 10.3132Z" fill="#E3E4E6"/>
<path d="M71.5078 13.7172C71.5078 10.3774 69.1092 7.63708 65.6165 7.63708C62.2501 7.63708 59.7252 10.2703 59.7252 13.7386C59.7252 17.2068 62.2711 19.8616 65.6165 19.8616C68.2676 19.8616 70.4348 18.2559 71.2554 15.7297H68.0362C67.5733 16.5646 66.6896 17.0784 65.6165 17.0784C64.1227 17.0784 63.1128 16.2006 62.8392 14.6164H71.4447C71.4868 14.3166 71.5078 14.0169 71.5078 13.7172ZM65.6165 10.3132C67.0052 10.3132 67.9941 11.0839 68.4359 12.497H62.9233C63.281 11.1267 64.2489 10.3132 65.6165 10.3132Z" fill="#E3E4E6"/>
<path d="M79.2493 7.63708C77.8395 7.63708 76.5771 8.1509 75.6093 9.02866L75.0832 7.95822H73.0634V23.6938H76.1353V18.8982C76.9979 19.519 78.071 19.883 79.2493 19.883C82.6789 19.883 85.2037 17.2497 85.2037 13.7386C85.2037 10.2489 82.6789 7.63708 79.2493 7.63708ZM78.9967 16.9071C77.2083 16.9071 75.9038 15.5584 75.9038 13.7386C75.9038 11.9403 77.2083 10.5701 78.9967 10.5701C80.7852 10.5701 82.0897 11.9403 82.0897 13.7386C82.0897 15.5584 80.7852 16.9071 78.9967 16.9071Z" fill="#E3E4E6"/>
<path d="M99.7198 7.95819L97.4894 14.8733L94.4173 8.04383H93.555L90.6094 14.8519L88.3581 7.95819H85.2441L88.9893 19.519H91.4721L93.9968 13.5459L96.5641 19.519H99.0468L102.75 7.95819H99.7198Z" fill="#E3E4E6"/>
<path d="M112.825 7.95822L112.51 9.05007C111.52 8.17231 110.237 7.63708 108.764 7.63708C105.355 7.63708 102.81 10.2489 102.81 13.7386C102.81 17.2282 105.355 19.8616 108.764 19.8616C110.216 19.8616 111.478 19.3477 112.446 18.4699L112.719 19.519H115.119V7.95822H112.825ZM109.016 16.9071C107.228 16.9071 105.923 15.537 105.923 13.7386C105.923 11.9189 107.228 10.5701 109.016 10.5701C110.805 10.5701 112.11 11.9189 112.11 13.7386C112.11 15.5584 110.805 16.9071 109.016 16.9071Z" fill="#E3E4E6"/>
<path d="M136.794 13.7172C136.794 10.3774 134.396 7.63708 130.904 7.63708C127.537 7.63708 125.013 10.2703 125.013 13.7386C125.013 17.2068 127.558 19.8616 130.904 19.8616C133.554 19.8616 135.722 18.2559 136.542 15.7297H133.323C132.86 16.5646 131.976 17.0784 130.904 17.0784C129.409 17.0784 128.399 16.2006 128.127 14.6164H136.731C136.774 14.3166 136.794 14.0169 136.794 13.7172ZM130.904 10.3132C132.292 10.3132 133.281 11.0839 133.723 12.497H128.21C128.568 11.1267 129.535 10.3132 130.904 10.3132Z" fill="#E3E4E6"/>
<path d="M144.157 7.89398C142.684 7.89398 141.675 8.36498 140.854 9.39261L140.307 7.95821H138.35V19.519H141.422V13.5245C141.422 11.6406 142.095 10.8484 143.821 10.8484H145.167V7.89398H144.157Z" fill="#E3E4E6"/>
<path d="M150.224 19.8616C153.107 19.8616 155 18.3201 155 15.9651C155 13.1392 152.622 12.7538 150.77 12.4112C149.593 12.1972 148.625 12.0045 148.625 11.2338C148.625 10.5701 149.193 10.1419 150.139 10.1419C151.213 10.1419 151.844 10.5915 151.865 11.5121H154.789C154.769 9.19994 152.959 7.63708 150.224 7.63708C147.489 7.63708 145.658 9.15711 145.658 11.3408C145.658 14.0597 147.972 14.5522 149.782 14.8733C150.981 15.066 151.971 15.3014 151.971 16.0936C151.971 16.8643 151.192 17.2711 150.35 17.2711C149.256 17.2711 148.477 16.7573 148.457 15.7297H145.469C145.469 18.1917 147.384 19.8616 150.224 19.8616Z" fill="#E3E4E6"/>
<path d="M123.017 16.7359C121.881 16.7359 121.25 16.0936 121.25 14.9803V10.4844H124.343V7.9582H121.208V4.92401H118.544V7.01745C118.544 7.11246 118.521 7.20597 118.477 7.28936L118.278 7.66272C118.181 7.84488 117.995 7.9582 117.793 7.9582H116.471V10.4844H118.544V15.4085C118.544 17.9562 119.714 19.519 122.218 19.519H124.407V16.7359H123.017Z" fill="#E3E4E6"/>
<path fill-rule="evenodd" clip-rule="evenodd" d="M26.383 11.7766C26.4137 12.0426 26.2065 12.2719 25.9442 12.2719H24.6016C24.3703 12.2719 24.1777 12.0918 24.1468 11.8576C23.4321 6.44752 18.8943 2.2766 13.4028 2.2766C7.91141 2.2766 3.37354 6.44751 2.65892 11.8576C2.62798 12.0918 2.43544 12.2719 2.2041 12.2719H0.861442C0.599178 12.2719 0.392025 12.0426 0.422658 11.7766C1.18607 5.14486 6.70635 0 13.4028 0C20.0993 0 25.6196 5.14487 26.383 11.7766ZM6.91376 15.8619C7.10214 15.7498 7.18297 15.5162 7.11969 15.3031C6.93641 14.686 6.83785 14.0312 6.83785 13.353C6.83785 10.1664 9.01305 7.49895 11.9292 6.81564C12.143 6.76557 12.3019 6.57595 12.3019 6.35196V4.95902C12.3019 4.68296 12.0645 4.4685 11.7987 4.51854C7.70823 5.28885 4.60943 8.95121 4.60943 13.353C4.60943 14.3999 4.78472 15.405 5.10694 16.3393C5.19707 16.6006 5.4989 16.7033 5.73329 16.564L6.91376 15.8619ZM15.2904 13.3528C15.2904 14.4177 14.4454 15.281 13.403 15.281C12.3607 15.281 11.5157 14.4177 11.5157 13.3528C11.5157 12.2879 12.3607 11.4247 13.403 11.4247C14.4454 11.4247 15.2904 12.2879 15.2904 13.3528ZM17.5188 13.3528C17.5188 15.6751 15.6761 17.5576 13.403 17.5576C11.13 17.5576 9.28727 15.6751 9.28727 13.3528C9.28727 11.0306 11.13 9.14809 13.403 9.14809C15.6761 9.14809 17.5188 11.0306 17.5188 13.3528ZM24.1319 14.9579C24.1649 14.7258 24.3565 14.5484 24.5861 14.5484H25.9307C26.1945 14.5484 26.4022 14.7801 26.369 15.0475C25.5539 21.622 20.0596 26.7057 13.403 26.7057C6.74645 26.7057 1.25211 21.622 0.437011 15.0475C0.403864 14.7801 0.611519 14.5484 0.875313 14.5484H2.21998C2.44954 14.5484 2.6412 14.7258 2.67417 14.9579C3.43528 20.3145 7.94882 24.429 13.403 24.429C18.8573 24.429 23.3707 20.3145 24.1319 14.9579ZM19.8964 15.8475C19.7083 15.7356 19.6274 15.5027 19.6901 15.2897C19.8708 14.6766 19.968 14.0264 19.968 13.353C19.968 10.1755 17.8049 7.51397 14.9011 6.8215C14.6882 6.77074 14.5303 6.58151 14.5303 6.35822V4.96406C14.5303 4.68745 14.7686 4.47283 15.0347 4.52385C19.1115 5.30542 22.1964 8.96119 22.1964 13.353C22.1964 14.3943 22.023 15.3943 21.704 16.3243C21.6142 16.586 21.3121 16.6892 21.0775 16.5497L19.8964 15.8475ZM8.6048 17.931C8.45505 17.7672 8.21469 17.7224 8.02513 17.8352L6.84731 18.5357C6.61375 18.6745 6.55163 18.9919 6.72767 19.2014C8.34038 21.1208 10.7326 22.3366 13.4028 22.3366C16.0786 22.3366 18.4752 21.1156 20.0881 19.1893C20.2635 18.9797 20.2012 18.6628 19.9679 18.524L18.7904 17.824C18.6005 17.7112 18.3598 17.7564 18.2102 17.9207C17.0115 19.2368 15.3013 20.0601 13.4028 20.0601C11.5092 20.0601 9.80295 19.2411 8.6048 17.931Z" fill="#E3E4E6"/>
<path opacity="0.64" d="M38.2317 29.2327C37.2241 29.2327 36.3671 29.6481 35.788 30.3485L35.5911 29.3633H34.9078V38.0638H35.8923V34.9183C36.4713 35.5474 37.2937 35.9154 38.2317 35.9154C40.0965 35.9154 41.44 34.4792 41.44 32.5681C41.44 30.6571 40.0965 29.2327 38.2317 29.2327ZM38.1623 34.942C36.8303 34.942 35.8575 33.9213 35.8575 32.5681C35.8575 31.2269 36.8303 30.206 38.1623 30.206C39.4826 30.206 40.4555 31.215 40.4555 32.5681C40.4555 33.9332 39.4826 34.942 38.1623 34.942ZM45.3009 35.9154C47.1887 35.9154 48.6132 34.491 48.6132 32.5681C48.6132 30.6571 47.1887 29.2327 45.3009 29.2327C43.4014 29.2327 41.9769 30.6452 41.9769 32.5681C41.9769 34.491 43.4014 35.9154 45.3009 35.9154ZM45.3009 34.942C43.9574 34.942 42.9845 33.945 42.9845 32.5681C42.9845 31.2031 43.9574 30.206 45.3009 30.206C46.6327 30.206 47.6056 31.2031 47.6056 32.58C47.6056 33.945 46.6327 34.942 45.3009 34.942ZM57.1765 29.3633L55.5897 34.1349L53.6555 29.4701H53.2965L51.3855 34.0875L49.822 29.3633H48.8028L50.9106 35.7729H51.7098L53.4818 31.4167L55.2423 35.7729H56.0414L58.1724 29.3633H57.1765ZM64.6794 32.6037C64.6794 30.7283 63.4285 29.2327 61.5291 29.2327C59.7107 29.2327 58.3441 30.669 58.3441 32.5681C58.3441 34.4792 59.7107 35.9154 61.5291 35.9154C62.8842 35.9154 63.9845 35.1439 64.5172 33.8263H63.4748C63.0926 34.5147 62.3977 34.9302 61.5291 34.9302C60.3477 34.9302 59.4791 34.1468 59.3285 32.9598H64.6562C64.6678 32.8411 64.6794 32.7225 64.6794 32.6037ZM61.5291 30.1823C62.641 30.1823 63.4864 30.8945 63.6949 32.034H59.3517C59.5486 30.9182 60.394 30.1823 61.5291 30.1823ZM68.5457 29.3395C67.6424 29.3395 66.9938 29.6838 66.5422 30.3485L66.3915 29.3633H65.6851V35.7729H66.6695V32.2951C66.6695 31.0488 67.3181 30.2891 68.4647 30.2891H69.1017V29.3395H68.5457ZM75.3459 32.6037C75.3459 30.7283 74.0951 29.2327 72.1957 29.2327C70.3773 29.2327 69.0107 30.669 69.0107 32.5681C69.0107 34.4792 70.3773 35.9154 72.1957 35.9154C73.5508 35.9154 74.651 35.1439 75.1837 33.8263H74.1414C73.7592 34.5147 73.0643 34.9302 72.1957 34.9302C71.0143 34.9302 70.1457 34.1468 69.9951 32.9598H75.3228C75.3344 32.8411 75.3459 32.7225 75.3459 32.6037ZM72.1957 30.1823C73.3075 30.1823 74.153 30.8945 74.3615 32.034H70.0182C70.2152 30.9182 71.0606 30.1823 72.1957 30.1823ZM81.4013 27.0843V30.1823C80.8222 29.5888 80.0115 29.2327 79.0849 29.2327C77.2087 29.2327 75.8536 30.6571 75.8536 32.58C75.8536 34.4792 77.2087 35.9154 79.0849 35.9154C80.0694 35.9154 80.9148 35.5237 81.4939 34.8709L81.6213 35.7848H82.3858V27.0843H81.4013ZM79.1544 34.942C77.8341 34.942 76.8613 33.9332 76.8613 32.58C76.8613 31.215 77.8341 30.206 79.1544 30.206C80.4863 30.206 81.4592 31.2269 81.4592 32.58C81.4592 33.9213 80.4863 34.942 79.1544 34.942ZM89.7761 29.2327C88.8495 29.2327 88.0388 29.5888 87.4597 30.1823V27.0843H86.4753V35.7729H87.2397L87.3787 34.8709C87.9578 35.5237 88.8032 35.9154 89.7761 35.9154C91.664 35.9154 93.0074 34.4792 93.0074 32.5681C93.0074 30.6571 91.664 29.2327 89.7761 29.2327ZM89.7066 34.942C88.3747 34.942 87.4018 33.9094 87.4018 32.5681C87.4018 31.2269 88.3747 30.206 89.7066 30.206C91.027 30.206 91.9998 31.215 91.9998 32.5681C91.9998 33.9332 91.027 34.942 89.7066 34.942ZM98.4139 29.3633L96.3172 34.218L94.0934 29.3633H93.0279L95.8076 35.3456L95.5877 35.8204C95.0781 36.8887 94.7885 37.1498 93.943 37.1498H93.4446V38.0638H94.0358C95.2173 38.0638 95.8076 37.5653 96.4796 36.0459L99.4673 29.3633H98.4139Z" fill="#E3E4E6"/>
<g opacity="0.64">
<path fill-rule="evenodd" clip-rule="evenodd" d="M138.846 27.1292C138.846 27.6093 138.466 27.9985 137.997 27.9985C137.53 27.9985 137.149 27.6093 137.149 27.1292C137.149 26.649 137.53 26.2598 137.997 26.2598C138.466 26.2598 138.846 26.649 138.846 27.1292ZM108.562 27.0615L106.469 33.2356L104.315 27.0615H102.282L105.605 35.7926H107.345L110.571 27.0615H108.562ZM115.823 29.0572L115.641 29.6933C115.068 29.1819 114.327 28.8701 113.475 28.8701C111.503 28.8701 110.03 30.3919 110.03 32.4249C110.03 34.458 111.503 35.9922 113.475 35.9922C114.314 35.9922 115.044 35.6928 115.604 35.1814L115.763 35.7926H117.15V29.0572H115.823ZM113.621 34.2709C112.586 34.2709 111.831 33.4727 111.831 32.4249C111.831 31.3647 112.586 30.5789 113.621 30.5789C114.655 30.5789 115.41 31.3647 115.41 32.4249C115.41 33.4851 114.655 34.2709 113.621 34.2709ZM124.928 29.8929C125.427 29.2942 126.218 28.9075 127.106 28.9075C128.604 28.9075 129.541 30.0052 129.541 31.714V35.7926H127.764V32.0133C127.764 30.9906 127.387 30.5041 126.62 30.5041C125.707 30.5041 125.147 31.1777 125.147 32.2628V35.7926H123.371V29.0572H124.588L124.928 29.8929ZM135.453 28.8203V27.0615H130.366V35.7926H132.204V32.4498H135.137V30.7411H132.204V28.8203H135.453ZM142.955 32.4249C142.955 34.458 141.433 35.9922 139.402 35.9922C137.369 35.9922 135.848 34.458 135.848 32.4249C135.848 30.3919 137.369 28.8701 139.402 28.8701C141.433 28.8701 142.955 30.3919 142.955 32.4249ZM137.648 32.4249C137.648 33.5225 138.379 34.2709 139.402 34.2709C140.423 34.2709 141.154 33.5225 141.154 32.4249C141.154 31.3398 140.423 30.5789 139.402 30.5789C138.379 30.5789 137.648 31.3398 137.648 32.4249ZM147.032 29.0198C146.18 29.0198 145.595 29.2942 145.121 29.8929L144.804 29.0572H143.673V35.7926H145.449V32.3002C145.449 31.2026 145.839 30.7411 146.837 30.7411H147.616V29.0198H147.032ZM150.02 29.8929C150.52 29.2942 151.311 28.9075 152.199 28.9075C153.696 28.9075 154.633 30.0052 154.633 31.714V35.7926H152.856V32.0133C152.856 30.9906 152.479 30.5041 151.712 30.5041C150.799 30.5041 150.24 31.1777 150.24 32.2628V35.7926H148.463V29.0572H149.68L150.02 29.8929ZM121.764 34.2074C121.095 34.2074 120.724 33.8303 120.724 33.1767V30.5368H122.545V29.0535H120.699V27.272H119.13V28.4274C119.13 28.5316 119.105 28.6341 119.056 28.7258C118.948 28.9277 118.739 29.0535 118.513 29.0535H117.909V30.5368H119.13V33.4281C119.13 34.9239 119.819 35.8416 121.294 35.8416H122.582V34.2074H121.764ZM140.755 27.9985C141.223 27.9985 141.603 27.6093 141.603 27.1292C141.603 26.649 141.223 26.2598 140.755 26.2598C140.286 26.2598 139.907 26.649 139.907 27.1292C139.907 27.6093 140.286 27.9985 140.755 27.9985Z" fill="#E3E4E6"/>
</g>
</g>
<defs>
<clipPath id="clip0_12_2370">
<rect width="155" height="39" fill="white"/>
</clipPath>
</defs>
</svg>
