<svg width="182" height="36" viewBox="0 0 182 36" fill="none" xmlns="http://www.w3.org/2000/svg">
<g clip-path="url(#clip0_10_10780)">
<path d="M49.2464 8.55773V26.6297C49.2464 26.6297 65.3034 29.9533 65.3034 17.5963C65.3034 4.69415 49.2464 8.55773 49.2464 8.55773ZM53.4055 23.4913V11.7939C53.4055 11.7939 61.1007 10.179 61.1007 17.613C61.1007 24.282 53.4055 23.4913 53.4055 23.4913ZM74.5303 12.3737C70.6814 12.3737 67.8527 15.6523 67.8527 19.7023C67.8527 23.7523 70.6814 27.0334 74.5303 27.0334C78.3817 27.0334 81.1694 23.7536 81.1694 19.7036C81.1694 15.6536 78.3817 12.3737 74.5303 12.3737ZM74.52 23.7266C72.2348 23.7266 71.7362 21.3904 71.7362 19.7023C71.7362 18.0167 72.0015 15.7359 74.52 15.7359C76.9898 15.7359 77.2885 18.0116 77.2885 19.7036C77.2885 21.3904 76.7886 23.7253 74.52 23.7253V23.7266ZM84.5121 13.3174V26.5577H88.2585V15.9043C88.2585 15.9043 90.5334 15.228 92.5752 16.1717C93.1763 13.8793 93.3122 13.0719 93.3122 13.0719C93.3122 13.0719 91.405 12.2477 88.9147 12.411C86.4231 12.5743 84.5108 13.3174 84.5108 13.3174H84.5121ZM101.716 12.3737C97.5892 12.0189 95.6948 13.1207 95.6948 13.1207L96.0524 16.0907C96.0524 16.0907 98.4299 15.1136 100.981 15.5932C102.762 15.9313 102.631 18.1093 102.631 18.1093H99.1925C98.1313 18.1093 97.0752 18.3497 96.1601 18.8897C95.1527 19.485 94.308 20.4017 94.2273 22.1323C94.0696 25.4559 96.0793 26.4497 97.4174 26.739C99.1003 26.739 102.183 26.7982 103.617 26.739C104.474 26.6886 105.314 26.4757 106.092 26.1116V15.8824C106.092 15.8824 105.843 12.7286 101.716 12.3737ZM102.631 23.8192H99.3066C99.3066 23.8192 97.9903 23.6932 97.9903 22.3779C97.9903 21.2092 98.7491 20.6692 99.4643 20.6692H102.631V23.8192ZM135.639 12.3737C131.512 12.0189 129.617 13.1207 129.617 13.1207L129.974 16.0907C129.974 16.0907 132.351 15.1136 134.902 15.5932C136.685 15.9313 136.554 18.1093 136.554 18.1093H133.115C132.054 18.1093 130.998 18.3497 130.083 18.8897C129.075 19.485 128.231 20.4017 128.15 22.1323C127.992 25.4559 130.002 26.4497 131.339 26.739C133.023 26.739 136.104 26.7982 137.539 26.739C138.878 26.6837 140.014 26.1116 140.014 26.1116V15.8824C140.009 15.8824 139.766 12.7286 135.639 12.3737ZM136.554 23.8192H133.229C133.229 23.8192 131.913 23.6932 131.913 22.3779C131.913 21.2092 132.672 20.6692 133.385 20.6692H136.554V23.8192ZM121.006 8.22473V15.5443H114.15V8.22473H110.002V26.4652H114.15V19.1404H121.007V26.4652H125.154V8.22473H121.006ZM154.057 13.1747L153.288 16.074C153.288 16.074 147.001 14.1904 147.065 19.6972C147.13 25.2052 152.015 23.9272 153.521 23.1532C153.857 25.4122 154.057 26.2852 154.057 26.2852C154.057 26.2852 150.91 27.4037 148.17 26.7609C145.424 26.1167 142.749 24.0634 142.949 19.5287C143.149 14.9927 146.232 13.4704 147.699 12.8314C150.179 11.7617 154.057 13.1747 154.057 13.1747ZM156.867 6.84001L160.847 6.23315V17.6953L165.332 12.7067H169.68L164.329 18.8087C164.329 18.8087 168.943 24.1792 169.919 26.4664C168.613 26.4279 165.402 26.4664 165.402 26.4664C165.402 26.4664 163.999 23.0824 160.917 20.6743V26.4664H157.002L156.867 6.83873V6.84001ZM181.453 13.1426L180.684 15.975C180.684 15.975 175.821 14.5672 175.463 16.3466C175.198 17.694 178.128 18.36 178.843 18.7046C180.749 19.6162 182 20.5933 182 22.6826C182 24.7732 181.053 26.9679 176.303 26.9679C171.554 26.9679 171.25 25.9907 171.25 25.9907L172.019 22.9564C172.019 22.9564 173.839 24.1843 176.937 23.8243C178.843 23.6006 178.22 22.1143 176.622 21.4766C175.025 20.8376 170.861 19.971 171.949 15.8452C173.428 10.278 181.453 13.1426 181.453 13.1426Z" fill="#E3E4E6"/>
<path fill-rule="evenodd" clip-rule="evenodd" d="M17.1541 11.9468C27.6499 8.41113 37.0293 9.11956 38.1072 13.536C39.1838 17.9563 31.5488 24.4028 21.0543 27.945C10.5586 31.4807 1.17402 30.7723 0.101246 26.3507C-0.975374 21.9356 6.65966 15.4838 17.1541 11.9468Z" fill="url(#paint0_linear_10_10780)"/>
<path fill-rule="evenodd" clip-rule="evenodd" d="M3.50287 0.0437078C4.59615 -0.376721 7.82345 2.35799 9.76777 3.71699C11.566 3.09471 14.3332 2.41199 16.7658 2.80028C18.0911 3.01242 19.2728 3.37885 20.1815 3.86999C21.2056 3.16542 26.7399 -1.13015 27.1026 0.349708C27.3743 1.47857 27.341 2.57657 27.1847 3.64114C26.8911 5.59928 26.3874 7.61399 25.8786 9.61199C25.63 10.5994 25.1583 11.5534 25.0673 12.4444C24.9263 13.7919 25.3864 15.2383 25.7171 16.4224C26.0516 17.613 26.226 18.891 27.0219 19.7139C31.354 23.0927 35.1721 27.9553 35.9732 30.357C36.309 31.3676 36.1411 32.1699 35.4862 32.7317C34.3865 33.6754 32.8587 33.5121 31.6629 32.6546C30.899 32.1043 29.8749 31.0063 29.0585 30.1281C28.439 29.4815 27.7861 28.8678 27.1026 28.2896C26.7566 27.999 26.5989 27.9617 26.3772 27.9296C26.0145 27.8794 25.2878 28.1636 24.7469 28.3101C23.3178 28.6984 21.5734 28.9929 19.938 29.2063C20.5609 29.9649 21.8938 31.0346 22.7064 31.9616C23.1717 32.4964 23.8266 33.2833 23.8433 34.2604C23.8587 35.0897 22.9115 36.279 20.425 35.9409C19.7278 35.8483 17.349 34.8171 16.9273 34.56C6.79553 28.5236 6.36616 22.716 5.2088 12.8919C4.89478 10.1829 3.66436 6.77828 3.17732 3.79285C2.97738 2.53799 2.50571 0.462851 3.50287 0.0437078Z" fill="#E3E4E6"/>
<path d="M21.9964 10.7036C21.4811 10.7627 21.0646 11.6961 20.475 12.1269C19.6034 12.7659 18.3141 12.5203 18.3846 12.024C18.4486 11.5277 18.7306 11.4891 19.4894 11.3747C20.2469 11.259 21.558 10.6599 21.1517 8.49215C20.7929 6.59829 18.6717 7.02386 18.6717 7.02386C18.6717 7.02386 18.2923 6.32057 17.3554 6.24857C16.4287 6.17786 15.6597 7.38386 15.6597 7.38386C15.6597 7.38386 15.0534 7.75672 14.7612 6.99172C14.6151 6.60986 13.8294 6.00943 13.0284 6.34243C12.2158 6.68057 11.507 7.49957 11.707 8.38286C11.9069 9.25715 12.8066 9.60043 13.4283 9.55672C14.0512 9.513 14.4472 9.85243 14.3934 10.1456C14.3011 10.6161 13.0438 10.9543 11.8313 10.2549C11.1392 9.85629 10.8405 8.74929 10.8623 8.50886L10.9059 7.947C10.9059 7.947 8.9667 7.947 8.51683 9.58886C8.07465 11.232 9.18972 12.0343 9.8562 11.97C10.2997 11.9263 9.96386 11.3104 10.5009 10.8026C10.6521 10.6611 11.0905 10.5673 11.2917 10.8347C11.4916 11.1021 11.416 11.43 11.102 11.61C10.788 11.79 10.5547 12.6039 11.4429 13.1169C11.8428 13.3457 11.2314 14.5633 10.5227 13.635C10.1048 13.095 10.1484 12.8546 9.70496 12.9034C9.26021 12.9471 8.72446 12.5164 8.63218 12.4509C8.54503 12.3853 8.02594 12.663 8.22589 13.2699C8.42583 13.8741 8.39891 14.6841 10.4304 14.7536C10.8534 14.7754 10.9943 14.8474 11.0802 15.1856C11.1661 15.5237 12.1786 17.0679 13.6744 16.2399C15.1688 15.4093 14.2639 14.1056 13.6141 13.9127C13.2027 13.7931 12.9643 13.2583 13.2732 12.9356C13.4398 12.762 13.6141 12.8276 14.0589 13.0076C15.3303 13.5321 15.9212 15.1303 15.0932 15.7976C14.7471 16.0753 15.4495 16.5394 16.0288 16.6204C16.6094 16.7079 18.846 16.479 19.0895 15.2229C19.1972 14.6726 19.1279 14.328 19.1433 14.0169C19.1651 13.4383 20.0046 13.3676 20.0264 13.7494C20.0482 14.1313 20.0149 14.2187 20.193 14.3833C20.6814 14.8256 21.9874 14.2573 22.3655 13.3791C22.7603 12.4946 22.6526 10.6226 21.9976 10.7049L21.9964 10.7036ZM16.1903 13.1593C15.9583 13.1593 15.6494 12.8211 15.8173 12.6296C16.2018 12.204 16.2608 11.5984 16.2339 11.2269C16.1954 10.7306 15.9096 10.539 15.893 10.2497C15.8827 9.999 16.0724 9.84086 16.2993 9.76372C16.7914 9.60557 17.1605 10.7306 17.1221 11.6961C17.1003 12.4714 16.7209 13.1593 16.1903 13.1593ZM16.7158 7.44429C16.8888 6.98657 17.1772 7.03029 17.2951 7.04057C17.4143 7.04572 17.745 7.17172 17.7283 7.47772C17.7283 7.47772 17.5489 8.40472 17.9078 8.694C18.4486 9.13629 19.1638 8.95115 19.3317 8.95115C19.565 8.946 19.8406 9.49629 19.4509 9.75343C19.0613 10.0106 17.8962 10.1083 17.2733 9.47443C16.6069 8.80843 16.553 7.87629 16.7158 7.44429Z" fill="#E3E4E6" stroke="#E3E4E6" stroke-width="0.212" stroke-miterlimit="10"/>
</g>
<defs>
<linearGradient id="paint0_linear_10_10780" x1="11.0776" y1="11.8568" x2="27.2567" y2="27.9084" gradientUnits="userSpaceOnUse">
<stop stop-color="#E3E4E6"/>
<stop offset="0.98" stop-color="#FCF5F0"/>
</linearGradient>
<clipPath id="clip0_10_10780">
<rect width="182" height="36" fill="white"/>
</clipPath>
</defs>
</svg>
