<svg width="182" height="42" viewBox="0 0 182 42" fill="none" xmlns="http://www.w3.org/2000/svg">
<g clip-path="url(#clip0_10_10785)">
<path d="M118.067 29.7296C116.572 29.7644 115.086 29.4934 113.7 28.9333C112.314 28.3732 111.056 27.5356 110.003 26.4718C108.95 25.408 108.125 24.1403 107.578 22.746C107.03 21.3518 106.772 19.8603 106.819 18.3627C106.78 16.8747 107.044 15.3944 107.593 14.0117C108.143 12.6289 108.967 11.3725 110.016 10.3188C111.061 9.24731 112.315 8.40375 113.7 7.841C115.086 7.27825 116.572 7.00845 118.067 7.0485C119.563 7.01154 121.049 7.31095 122.414 7.92478C123.78 8.5386 124.992 9.45125 125.96 10.5957L124.026 12.5342C123.316 11.6353 122.41 10.913 121.376 10.4235C120.342 9.93398 119.21 9.69056 118.067 9.71221C116.952 9.68494 115.845 9.88609 114.811 10.3033C113.777 10.7205 112.839 11.3451 112.055 12.1386C111.253 12.9576 110.628 13.9322 110.216 15.0026C109.804 16.0729 109.615 17.2164 109.66 18.3627C109.611 19.5133 109.799 20.6618 110.211 21.7369C110.622 22.8121 111.25 23.791 112.055 24.6131C112.837 25.4092 113.775 26.0354 114.809 26.4528C115.843 26.8702 116.952 27.0699 118.067 27.0395C119.331 27.0333 120.578 26.7435 121.716 26.1913C122.854 25.6391 123.855 24.8386 124.644 23.8483L126.67 25.8263C125.644 27.0551 124.353 28.0337 122.894 28.6878C121.38 29.3843 119.732 29.7399 118.067 29.7296ZM131.708 7.53641V29.2548H128.919V7.53641H131.708ZM134.103 21.8176C134.072 20.7766 134.247 19.7399 134.617 18.7668C134.988 17.7938 135.546 16.9036 136.26 16.1473C136.967 15.4131 137.818 14.8346 138.761 14.4487C139.703 14.0627 140.715 13.8777 141.732 13.9056C142.746 13.8765 143.755 14.061 144.693 14.4472C145.631 14.8333 146.478 15.4125 147.179 16.1473C147.9 16.8991 148.464 17.7883 148.837 18.7622C149.209 19.7361 149.384 20.775 149.349 21.8176C149.387 22.8606 149.215 23.9006 148.842 24.875C148.469 25.8494 147.903 26.7382 147.179 27.4878C146.48 28.2253 145.633 28.8062 144.695 29.1926C143.756 29.5789 142.747 29.7619 141.732 29.7296C140.715 29.7607 139.701 29.5772 138.759 29.1911C137.816 28.8049 136.965 28.2246 136.26 27.4878C135.546 26.7315 134.988 25.8413 134.617 24.8683C134.247 23.8953 134.072 22.8585 134.103 21.8176ZM136.891 21.8176C136.827 23.2437 137.329 24.6374 138.286 25.6944C138.729 26.1654 139.263 26.5407 139.855 26.7972C140.448 27.0536 141.087 27.186 141.732 27.186C142.378 27.186 143.017 27.0536 143.609 26.7972C144.202 26.5407 144.736 26.1654 145.179 25.6944C146.136 24.6374 146.638 23.2437 146.573 21.8176C146.635 20.3997 146.133 19.0153 145.179 17.9671C144.74 17.4891 144.208 17.1076 143.614 16.8466C143.021 16.5856 142.38 16.4509 141.732 16.4509C141.085 16.4509 140.444 16.5856 139.85 16.8466C139.257 17.1076 138.724 17.4891 138.286 17.9671C137.331 19.0153 136.83 20.3997 136.891 21.8176ZM164.741 29.2548H162.11V27.1845H161.978C161.508 27.9585 160.834 28.588 160.031 29.0043C159.197 29.4784 158.254 29.7283 157.295 29.7296C156.526 29.7795 155.755 29.6668 155.032 29.3988C154.309 29.1307 153.65 28.7133 153.098 28.1735C152.056 26.9376 151.533 25.3446 151.638 23.7296V14.4067H154.414V23.5582C154.356 24.0537 154.411 24.5558 154.576 25.0266C154.74 25.4974 155.01 25.9244 155.364 26.2752C155.717 26.6261 156.146 26.8915 156.618 27.0513C157.089 27.2112 157.591 27.2612 158.084 27.1977C158.617 27.207 159.145 27.0928 159.626 26.8641C160.107 26.6354 160.53 26.2983 160.86 25.8791C161.61 24.9732 162.008 23.8254 161.978 22.6483V14.4067H164.767L164.741 29.2548ZM174.16 29.7296C173.213 29.7294 172.277 29.5243 171.417 29.1283C170.556 28.7323 169.791 28.1547 169.174 27.4351C167.792 25.8949 167.04 23.8889 167.069 21.8176C167.024 19.7569 167.757 17.7553 169.121 16.2132C169.734 15.4871 170.498 14.9042 171.359 14.5056C172.22 14.1069 173.158 13.9021 174.107 13.9056C175.145 13.8879 176.171 14.128 177.093 14.6045C177.938 15.0222 178.656 15.6598 179.172 16.4506H179.29L179.224 14.4067V7.53641H182V29.2548H179.369V27.1845H179.251C178.735 27.9754 178.017 28.613 177.172 29.0307C176.242 29.5114 175.206 29.7516 174.16 29.7296ZM174.62 27.1845C175.255 27.2051 175.886 27.0818 176.467 26.8238C177.048 26.5658 177.563 26.1798 177.975 25.6944C178.895 24.6201 179.366 23.2314 179.29 21.8176C179.354 20.4134 178.884 19.0373 177.975 17.9671C177.565 17.4784 177.05 17.0884 176.47 16.8259C175.889 16.5634 175.257 16.4352 174.62 16.4506C173.984 16.4408 173.354 16.5715 172.774 16.8337C172.194 17.0958 171.679 17.4827 171.266 17.9671C170.357 19.0373 169.886 20.4134 169.95 21.8176C169.877 23.2231 170.348 24.6025 171.266 25.6681C171.679 26.1524 172.194 26.5394 172.774 26.8015C173.354 27.0636 173.984 27.1944 174.62 27.1845Z" fill="#E3E4E6"/>
<path d="M12.4841 29.7296C9.21068 29.7404 6.0648 28.4579 3.72805 26.16C1.3913 23.862 0.0518871 20.7337 0 17.4528C0.0518871 14.1719 1.3913 11.0435 3.72805 8.74561C6.0648 6.44768 9.21068 5.16519 12.4841 5.17601C14.0439 5.14997 15.5932 5.43631 17.0412 6.01825C18.4892 6.60019 19.8067 7.46602 20.9165 8.56498L18.5355 10.9254C16.912 9.35839 14.7377 8.49607 12.4841 8.52542C11.3173 8.52184 10.1614 8.75089 9.08365 9.19925C8.00593 9.64761 7.02792 10.3063 6.20651 11.1371C5.3851 11.9678 4.73669 12.954 4.29902 14.0383C3.86135 15.1225 3.64314 16.2832 3.6571 17.4528C3.64314 18.6224 3.86135 19.783 4.29902 20.8673C4.73669 21.9516 5.3851 22.9378 6.20651 23.7685C7.02792 24.5993 8.00593 25.258 9.08365 25.7063C10.1614 26.1547 11.3173 26.3837 12.4841 26.3802C13.6336 26.4275 14.7802 26.2324 15.8498 25.8077C16.9193 25.3829 17.8881 24.7379 18.6933 23.9143C19.7667 22.7537 20.4119 21.2601 20.5219 19.6813H12.4841V16.3451H23.7975C23.9209 17.037 23.9781 17.739 23.9685 18.4418C24.0576 21.3356 23.0087 24.1487 21.0481 26.2747C19.9446 27.4237 18.6111 28.3256 17.135 28.9211C15.659 29.5165 14.074 29.7921 12.4841 29.7296Z" fill="#E3E4E6"/>
<path d="M41.4647 21.8176C41.5079 22.8723 41.3379 23.925 40.9651 24.9123C40.5922 25.8996 40.024 26.8011 39.2948 27.5628C38.5655 28.3244 37.6902 28.9304 36.7214 29.3444C35.7526 29.7584 34.7103 29.9718 33.6572 29.9718C32.604 29.9718 31.5617 29.7584 30.5929 29.3444C29.6242 28.9304 28.7488 28.3244 28.0196 27.5628C27.2903 26.8011 26.7222 25.8996 26.3493 24.9123C25.9764 23.925 25.8065 22.8723 25.8497 21.8176C25.8065 20.7628 25.9764 19.7101 26.3493 18.7228C26.7222 17.7355 27.2903 16.834 28.0196 16.0724C28.7488 15.3107 29.6242 14.7047 30.5929 14.2907C31.5617 13.8768 32.604 13.6634 33.6572 13.6634C34.7103 13.6634 35.7526 13.8768 36.7214 14.2907C37.6902 14.7047 38.5655 15.3107 39.2948 16.0724C40.024 16.834 40.5922 17.7355 40.9651 18.7228C41.3379 19.7101 41.5079 20.7628 41.4647 21.8176ZM38.0444 21.8176C38.1024 21.205 38.0321 20.587 37.838 20.0033C37.6439 19.4195 37.3303 18.8828 36.9173 18.4276C36.5043 17.9724 36.0009 17.6087 35.4395 17.3599C34.8781 17.111 34.271 16.9825 33.6572 16.9825C33.0433 16.9825 32.4362 17.111 31.8748 17.3599C31.3134 17.6087 30.8101 17.9724 30.397 18.4276C29.984 18.8828 29.6704 19.4195 29.4763 20.0033C29.2822 20.587 29.2119 21.205 29.27 21.8176C29.2119 22.4301 29.2822 23.0481 29.4763 23.6319C29.6704 24.2156 29.984 24.7523 30.397 25.2075C30.8101 25.6627 31.3134 26.0264 31.8748 26.2753C32.4362 26.5241 33.0433 26.6527 33.6572 26.6527C34.271 26.6527 34.8781 26.5241 35.4395 26.2753C36.0009 26.0264 36.5043 25.6627 36.9173 25.2075C37.3303 24.7523 37.6439 24.2156 37.838 23.6319C38.0321 23.0481 38.1024 22.4301 38.0444 21.8176Z" fill="#E3E4E6"/>
<path d="M58.9741 21.8176C59.0173 22.8723 58.8473 23.925 58.4744 24.9123C58.1015 25.8996 57.5334 26.8011 56.8041 27.5628C56.0749 28.3244 55.1996 28.9304 54.2308 29.3444C53.262 29.7584 52.2197 29.9718 51.1665 29.9718C50.1134 29.9718 49.0711 29.7584 48.1023 29.3444C47.1335 28.9304 46.2582 28.3244 45.529 27.5628C44.7997 26.8011 44.2316 25.8996 43.8587 24.9123C43.4858 23.925 43.3158 22.8723 43.359 21.8176C43.3158 20.7628 43.4858 19.7101 43.8587 18.7228C44.2316 17.7355 44.7997 16.834 45.529 16.0724C46.2582 15.3107 47.1335 14.7047 48.1023 14.2907C49.0711 13.8768 50.1134 13.6634 51.1665 13.6634C52.2197 13.6634 53.262 13.8768 54.2308 14.2907C55.1996 14.7047 56.0749 15.3107 56.8041 16.0724C57.5334 16.834 58.1015 17.7355 58.4744 18.7228C58.8473 19.7101 59.0173 20.7628 58.9741 21.8176ZM55.5537 21.8176C55.6006 21.2105 55.5218 20.6003 55.3223 20.0252C55.1228 19.4502 54.8068 18.9227 54.3942 18.4758C53.9816 18.029 53.4813 17.6725 52.9248 17.4286C52.3682 17.1848 51.7674 17.059 51.16 17.059C50.5526 17.059 49.9517 17.1848 49.3952 17.4286C48.8386 17.6725 48.3383 18.029 47.9257 18.4758C47.5131 18.9227 47.1972 19.4502 46.9976 20.0252C46.7981 20.6003 46.7193 21.2105 46.7662 21.8176C46.7193 22.4246 46.7981 23.0348 46.9976 23.6099C47.1972 24.1849 47.5131 24.7124 47.9257 25.1593C48.3383 25.6061 48.8386 25.9627 49.3952 26.2065C49.9517 26.4503 50.5526 26.5762 51.16 26.5762C51.7674 26.5762 52.3682 26.4503 52.9248 26.2065C53.4813 25.9627 53.9816 25.6061 54.3942 25.1593C54.8068 24.7124 55.1228 24.1849 55.3223 23.6099C55.5218 23.0348 55.6006 22.4246 55.5537 21.8176Z" fill="#E3E4E6"/>
<path d="M76.0361 14.4067V28.5955C76.0361 34.424 72.5764 36.824 68.4983 36.824C66.9975 36.8323 65.5281 36.3928 64.2772 35.5616C63.0263 34.7303 62.0503 33.5448 61.4735 32.1559L64.5123 30.8373C64.8185 31.6458 65.3568 32.3453 66.0591 32.8475C66.7615 33.3497 67.5965 33.6322 68.4588 33.6592C71.0898 33.6592 72.6948 32.0372 72.6948 29.0175V27.8834H72.6158C72.0896 28.4787 71.4406 28.9521 70.7137 29.2708C69.9868 29.5896 69.1994 29.7461 68.4062 29.7296C66.3128 29.7296 64.3052 28.896 62.825 27.4122C61.3448 25.9284 60.5132 23.916 60.5132 21.8176C60.5132 19.7192 61.3448 17.7067 62.825 16.223C64.3052 14.7392 66.3128 13.9056 68.4062 13.9056C69.1967 13.8909 69.9812 14.0457 70.7072 14.3595C71.4331 14.6734 72.0839 15.139 72.6158 15.7253H72.7342V14.4067H76.0361ZM72.971 21.8703C73.0193 21.2725 72.9471 20.671 72.7587 20.1017C72.5703 19.5324 72.2695 19.0069 71.8742 18.5566C71.479 18.1063 70.9974 17.7403 70.4581 17.4804C69.9188 17.2205 69.3328 17.0721 68.7351 17.044C68.128 17.0659 67.5313 17.2087 66.9798 17.4641C66.4283 17.7196 65.933 18.0824 65.5229 18.5316C65.1127 18.9808 64.7958 19.5074 64.5907 20.0806C64.3856 20.6538 64.2963 21.2622 64.3281 21.8703C64.2999 22.4743 64.3921 23.0779 64.5993 23.6458C64.8065 24.2137 65.1246 24.7344 65.5349 25.1777C65.9452 25.6209 66.4396 25.9777 66.9891 26.2272C67.5385 26.4767 68.1321 26.6139 68.7351 26.6307C69.3304 26.6095 69.9153 26.4675 70.4544 26.2134C70.9934 25.9592 71.4755 25.5981 71.8714 25.1519C72.2673 24.7058 72.5689 24.1838 72.7579 23.6175C72.9469 23.0512 73.0194 22.4523 72.971 21.8571V21.8703Z" fill="#E3E4E6"/>
<path d="M82.1269 6.01996V29.2549H78.654V6.01996H82.1269Z" fill="#E3E4E6"/>
<path d="M95.8082 24.4285L98.5181 26.2747C97.7946 27.357 96.8157 28.2435 95.6682 28.8554C94.5208 29.4673 93.2403 29.7857 91.9406 29.7823C90.9067 29.7972 89.8805 29.6015 88.9242 29.2073C87.9679 28.8131 87.1014 28.2284 86.377 27.4888C85.6526 26.7491 85.0855 25.8698 84.71 24.9041C84.3345 23.9383 84.1583 22.9063 84.1923 21.8703C84.0383 20.0894 84.5435 18.3139 85.6115 16.8824C86.6795 15.4508 88.2358 14.4632 89.9835 14.108C91.7313 13.7527 93.5484 14.0545 95.0884 14.9559C96.6284 15.8573 97.7836 17.2953 98.3339 18.9956L98.6891 19.9055L88.1651 24.2703C88.493 25.0092 89.0342 25.6327 89.7188 26.0604C90.4034 26.4882 91.2002 26.7006 92.0064 26.6703C92.7782 26.6527 93.5327 26.4375 94.1982 26.0451C94.8636 25.6528 95.4179 25.0963 95.8082 24.4285ZM87.5073 21.5802L94.5848 18.6528C94.3015 18.1276 93.8723 17.6961 93.3493 17.4106C92.8262 17.125 92.2318 16.9977 91.638 17.044C91.0695 17.0694 90.5115 17.2069 89.996 17.4488C89.4806 17.6906 89.0178 18.032 88.6341 18.4533C88.2504 18.8747 87.9534 19.3677 87.76 19.9043C87.5667 20.4408 87.4808 21.0104 87.5073 21.5802Z" fill="#E3E4E6"/>
</g>
<defs>
<clipPath id="clip0_10_10785">
<rect width="182" height="42" fill="white"/>
</clipPath>
</defs>
</svg>
