<svg width="152" height="42" viewBox="0 0 152 42" fill="none" xmlns="http://www.w3.org/2000/svg">
<g clip-path="url(#clip0_10_10733)">
<mask id="mask0_10_10733" style="mask-type:luminance" maskUnits="userSpaceOnUse" x="0" y="0" width="152" height="42">
<path d="M152 0H0V42H152V0Z" fill="white"/>
</mask>
<g mask="url(#mask0_10_10733)">
<mask id="mask1_10_10733" style="mask-type:luminance" maskUnits="userSpaceOnUse" x="0" y="1" width="152" height="39">
<path d="M151.244 1.94223H0V39.7281H151.244V1.94223Z" fill="white"/>
</mask>
<g mask="url(#mask1_10_10733)">
<path d="M145.408 1.94223V9.80575L136.239 1.94223H131.606V17.514H137.288V9.54458L146.514 17.514H151.082V1.94223H145.408Z" fill="#E3E4E6"/>
<path d="M57.646 17.514H72.716V13.1658H57.646V6.33988H72.7321V1.94223H57.646H52.6227H52.0211V17.514H52.6227H57.646Z" fill="#E3E4E6"/>
<path d="M110.887 17.514H124.778V13.5964H110.887V11.4434H124.778V7.95635H110.887V5.85987H124.778V1.94223H110.887H105.725H105.262V17.514H105.823H110.887Z" fill="#E3E4E6"/>
<path d="M31.8799 14.0128H40.2358V17.5422H45.8363V1.94223H26.2714V17.514H31.8799V14.0128ZM31.8799 6.24811H40.2358V9.70693H31.8799V6.24811Z" fill="#E3E4E6"/>
<path d="M5.62482 11.9799H13.8344V17.514H19.4674V1.94223H13.8344V7.36341H5.62482V1.94223H0V17.514H5.62482V11.9799Z" fill="#E3E4E6"/>
<path d="M84.3395 12.6504H93.053L98.6372 8.02693H98.6697V1.94223H93.053V8.02693H84.3395V1.94223H78.7145V17.514H84.3395V12.6504Z" fill="#E3E4E6"/>
<path d="M98.6861 12.6497H93.0614V17.5133H98.6861V12.6497Z" fill="#E3E4E6"/>
<path d="M18.6952 23.3451H0V38.917H5.60856V35.3875H19.5081V23.3451H18.6952ZM13.932 31.1099H5.60856V27.6722H13.9645L13.932 31.1099Z" fill="#E3E4E6"/>
<path d="M40.6093 34.511V38.937H45.8359V34.511H40.6093Z" fill="#E3E4E6"/>
<path d="M45.8117 23.3451H26.3037V38.9381H31.9366V34.5122H40.6421L45.8685 29.8887L45.8117 23.3451ZM40.2519 30.5664H31.8959V27.164H40.2519V30.5664Z" fill="#E3E4E6"/>
<path d="M124.762 23.3451H110.887H106.505H105.286V30.1287V34.4627V38.917H110.887V34.4627H124.762V30.1287H110.887V27.6722H124.762V23.3451Z" fill="#E3E4E6"/>
<path d="M67.1073 23.3451H52.0211V38.917H72.7321V23.3451H67.1073ZM67.1073 34.491H57.6622V27.6652H67.1236L67.1073 34.491Z" fill="#E3E4E6"/>
<path d="M98.7027 23.3451H78.6904V38.917H98.7027V27.7427V23.3451ZM93.0942 34.491H84.3319V27.6652H93.0942V34.491Z" fill="#E3E4E6"/>
<path d="M142.037 34.8903C144.418 34.5548 146.034 32.6077 145.647 30.5413C145.26 28.4748 143.019 27.0716 140.639 27.407C138.26 27.7424 136.644 29.6894 137.03 31.756C137.416 33.8224 139.658 35.2257 142.037 34.8903Z" fill="#E3E4E6"/>
<path d="M150.553 28.5265V28.6113L151.212 28.4277V28.3359C150.712 27.0436 149.883 25.8653 148.79 24.8879C147.695 23.9105 146.362 23.1591 144.888 22.6889H144.79L144.555 23.2536H144.652C146.03 23.691 147.274 24.3921 148.296 25.305C149.317 26.2179 150.089 27.319 150.553 28.5265Z" fill="#E3E4E6"/>
<path d="M150.48 33.9611C149.987 35.1545 149.194 36.2371 148.156 37.13C147.121 38.0228 145.867 38.703 144.489 39.1211H144.383L144.611 39.6857H144.708C146.186 39.2398 147.531 38.5117 148.642 37.5552C149.754 36.5987 150.604 35.4381 151.13 34.1588V34.074L150.472 33.8693L150.48 33.9611Z" fill="#E3E4E6"/>
<path d="M132.142 33.8139V33.7221L131.484 33.9127V34.0045C131.992 35.3236 132.842 36.5236 133.97 37.5115C135.098 38.4992 136.471 39.2484 137.987 39.7009H138.084L138.312 39.1292H138.214C136.801 38.7065 135.518 38.0074 134.466 37.0857C133.412 36.1641 132.618 35.0447 132.142 33.8139Z" fill="#E3E4E6"/>
<path d="M132.183 28.3772C132.681 27.144 133.501 26.0277 134.579 25.1153C135.655 24.203 136.961 23.5195 138.393 23.1183H138.499L138.287 22.5466H138.182C136.647 22.9788 135.248 23.7135 134.095 24.6932C132.941 25.6729 132.065 26.8709 131.533 28.1936V28.2784L132.183 28.476V28.3772Z" fill="#E3E4E6"/>
</g>
</g>
</g>
<defs>
<clipPath id="clip0_10_10733">
<rect width="152" height="42" fill="white"/>
</clipPath>
</defs>
</svg>
