<svg width="160" height="40" viewBox="0 0 160 40" fill="none" xmlns="http://www.w3.org/2000/svg">
<g clip-path="url(#clip0_10_10760)">
<path fill-rule="evenodd" clip-rule="evenodd" d="M9.0448 16.8463L20.2255 29.9617L31.2726 17.0002L40.3506 27.654L29.8041 40.0002L27.1007 36.9232L35.0106 27.654L31.306 23.3079L20.2255 36.2309L9.0448 23.1155L5.37354 27.4232L13.3836 36.8463L10.6802 39.9232L0.0335388 27.4232L9.0448 16.8463Z" fill="#E3E4E6"/>
<path fill-rule="evenodd" clip-rule="evenodd" d="M31.3058 23.1154L20.1251 10L9.07801 22.9615L0 12.3077L10.5465 0L13.2499 3.07692L5.34002 12.3462L9.04463 16.6923L20.0918 3.73077L31.2725 16.8462L34.9437 12.5385L26.9337 3.11538L29.637 0.0384638L40.2836 12.5385L31.3058 23.1154Z" fill="#E3E4E6"/>
<path fill-rule="evenodd" clip-rule="evenodd" d="M18.4563 39.6923V31.4231H22.0942V39.6923H18.4563Z" fill="#E3E4E6"/>
<path fill-rule="evenodd" clip-rule="evenodd" d="M18.4563 8.53855V0.269318H22.0942V8.53855H18.4563Z" fill="#E3E4E6"/>
<path d="M50.9304 9.7305H47.2925V30.8458H50.9304V9.7305Z" fill="#E3E4E6"/>
<path d="M69.3867 15.3074C67.718 15.3074 66.1494 16.1151 65.3817 17.9228C64.5807 16.1535 63.0454 15.3074 61.2767 15.3074C59.6746 15.3074 58.4397 15.9997 57.8056 17.2689L57.4385 15.6151H54.1343V30.8459H57.7055V22.3074C57.7055 20.0382 58.7067 18.9612 60.2086 18.9612C61.6438 18.9612 62.6116 19.9997 62.6116 22.4612V30.8074H66.0492V22.3458C66.1159 19.9612 67.184 18.9228 68.5523 18.9228C69.9875 18.9228 70.9553 19.9612 70.9553 22.2305V30.8074H74.5265V21.3843C74.4931 17.2305 72.0234 15.3074 69.3867 15.3074Z" fill="#E3E4E6"/>
<path d="M92.6157 15.3074C90.947 15.3074 89.3784 16.1151 88.6107 17.9228C87.8097 16.1535 86.2744 15.3074 84.5057 15.3074C82.9035 15.3074 81.6687 15.9997 81.0346 17.2689L80.6341 15.6151H77.2966V30.8459H80.8678V22.3074C80.8678 20.0382 81.869 18.9612 83.3709 18.9612C84.806 18.9612 85.7739 19.9997 85.7739 22.4612V30.8074H89.2115V22.3458C89.2782 19.9612 90.3463 18.9228 91.7146 18.9228C93.1497 18.9228 94.1176 19.9612 94.1176 22.2305V30.8074H97.6888V21.3843C97.7221 17.2305 95.2524 15.3074 92.6157 15.3074Z" fill="#E3E4E6"/>
<path d="M109.203 15.6152V23.9614C109.203 26.2306 108.302 27.5768 106.533 27.6152C104.864 27.6922 103.796 26.5383 103.796 24.1537V15.6152H100.425V24.6922C100.425 28.5768 102.394 31.1537 105.765 31.1537C107.334 31.1537 108.502 30.346 109.17 29.1922L109.336 30.846H112.607V15.6152H109.203Z" fill="#E3E4E6"/>
<path d="M123.054 15.3074C121.085 15.3074 119.75 16.1535 119.049 17.4228L118.849 15.6151H115.545V30.8459H119.116V22.7689C119.116 20.3074 120.117 18.8074 122.019 18.8074C123.755 18.8074 124.79 20.1151 124.79 22.6151V30.8074H128.361V21.7305C128.361 17.8843 126.425 15.3074 123.054 15.3074Z" fill="#E3E4E6"/>
<path d="M143.947 22.9997C143.947 18.3458 141.31 15.3074 137.372 15.3074C133.433 15.3074 130.797 18.4612 130.797 23.2305C130.797 27.9997 133.433 31.192 137.405 31.192C140.743 31.192 143.246 29.0382 143.846 25.8843H140.275C139.875 27.192 138.84 27.8843 137.539 27.8843C135.836 27.8843 134.468 26.6151 134.401 24.3843H143.98V22.9997H143.947ZM137.372 18.4997C138.907 18.4997 140.208 19.5382 140.375 21.6535H134.401C134.568 19.5382 135.87 18.4997 137.372 18.4997Z" fill="#E3E4E6"/>
<path d="M145.348 15.6154V19.1923H147.384V30.8461H150.955V19.1923H153.992V15.6154H150.955V14.0769C150.955 12.9999 151.223 12.1538 152.658 12.1538H153.992V8.80765H151.89C148.552 8.80765 147.384 10.6922 147.384 13.6538V15.6154H145.348Z" fill="#E3E4E6"/>
<path d="M156.329 13.2692H159.934L160 8.80765H156.395L156.329 13.2692ZM156.395 30.8461H159.967V15.6154H156.395V30.8461Z" fill="#E3E4E6"/>
</g>
<defs>
<clipPath id="clip0_10_10760">
<rect width="160" height="40" fill="white"/>
</clipPath>
</defs>
</svg>
