<svg width="182" height="29" viewBox="0 0 182 29" fill="none" xmlns="http://www.w3.org/2000/svg">
<path d="M2.6702 2.63049V10.2493H5.79532V4.15427H12.0455V1.10677H4.23274C3.81835 1.10677 3.4209 1.26726 3.12786 1.55304C2.83483 1.83882 2.6702 2.22635 2.6702 2.63049ZM30.7963 10.2493V2.63049C30.7963 2.22635 30.6317 1.83882 30.3386 1.55304C30.0456 1.26726 29.6481 1.10677 29.2337 1.10677H21.4209V4.15427H27.6711V10.2493H30.7963ZM27.6711 25.4868H21.4209V28.5342H29.2337C29.6481 28.5342 30.0456 28.3736 30.3386 28.0883C30.6317 27.8023 30.7963 27.4146 30.7963 27.0105V19.3918H27.6711V25.4868ZM12.0455 28.5342V25.4868H5.79532V19.3918H2.6702V27.0105C2.6702 27.4146 2.83483 27.8023 3.12786 28.0883C3.4209 28.3736 3.81835 28.5342 4.23274 28.5342H12.0455ZM1.10764 13.2967H32.3588V16.3443H1.10764V13.2967Z" fill="#E3E4E6"/>
<path d="M51.4591 22.6442C49.1286 22.6442 47.2724 22.1583 45.8903 21.1867C44.5242 20.1993 43.817 18.7887 43.7689 16.955H48.0599C48.2369 18.5536 49.3617 19.353 51.4353 19.353C52.2066 19.353 52.8576 19.2119 53.3881 18.9298C53.9343 18.6319 54.2075 18.1853 54.2075 17.5898C54.2075 17.1823 54.039 16.8453 53.7012 16.5788C53.3638 16.2967 53.0184 16.1008 52.6649 15.9911C52.327 15.8813 51.6761 15.7089 50.7121 15.4739C50.6636 15.4582 50.6317 15.4504 50.6155 15.4504C50.5993 15.4347 50.5751 15.4268 50.5432 15.4268C50.5108 15.4112 50.479 15.4034 50.4466 15.4034C49.7072 15.2309 49.0967 15.0821 48.6147 14.9567C48.1484 14.8156 47.6098 14.6118 46.9993 14.3455C46.4046 14.0634 45.9305 13.7577 45.577 13.4286C45.2233 13.0994 44.918 12.6685 44.6608 12.1356C44.4198 11.587 44.2992 10.9758 44.2992 10.3018C44.2992 8.57782 44.926 7.28479 46.1796 6.42277C47.4494 5.56075 49.1048 5.12979 51.146 5.12979C53.1064 5.12979 54.7056 5.5686 55.9432 6.4463C57.197 7.32395 57.8641 8.60914 57.9445 10.3018H53.7735C53.6931 9.65922 53.4119 9.16552 52.9299 8.82073C52.4479 8.46024 51.8046 8.28003 51.0014 8.28003C50.262 8.28003 49.6591 8.42892 49.1933 8.72672C48.7432 9.00883 48.5181 9.38495 48.5181 9.85517C48.5181 10.388 48.7912 10.7798 49.3379 11.0306C49.8842 11.2657 50.9129 11.5478 52.4236 11.877C53.3719 12.0964 54.1513 12.3158 54.7623 12.5352C55.3727 12.739 55.9918 13.0368 56.6184 13.4286C57.2612 13.8203 57.7352 14.3297 58.0406 14.9567C58.3623 15.5679 58.5231 16.3045 58.5231 17.1666C58.5231 18.8749 57.856 20.215 56.5218 21.1867C55.2038 22.1583 53.5166 22.6442 51.4591 22.6442ZM64.2429 18.9063C64.693 19.5646 65.3359 19.8936 66.1719 19.8936C67.0074 19.8936 67.6502 19.5646 68.1004 18.9063C68.5667 18.248 68.7993 17.3624 68.7993 16.2497C68.7993 15.137 68.5667 14.2514 68.1004 13.5931C67.6502 12.9191 67.0074 12.5823 66.1719 12.5823C65.3359 12.5823 64.693 12.9114 64.2429 13.5697C63.7933 14.2279 63.5682 15.1213 63.5682 16.2497C63.5682 17.3624 63.7933 18.248 64.2429 18.9063ZM70.9453 20.8105C69.7395 22.0173 68.1565 22.6207 66.1957 22.6207C64.2353 22.6207 62.6442 22.0173 61.4223 20.8105C60.2008 19.6036 59.5904 18.0835 59.5904 16.2497C59.5904 14.416 60.2008 12.8957 61.4223 11.6888C62.6442 10.4821 64.2353 9.87865 66.1957 9.87865C68.1565 9.87865 69.7395 10.4821 70.9453 11.6888C72.1667 12.8957 72.7772 14.416 72.7772 16.2497C72.7772 18.0835 72.1667 19.6036 70.9453 20.8105ZM74.1299 22.2446V5.43538H78.1077V22.2446H74.1299ZM80.0153 22.2446V10.2078H83.9446V22.2446H80.0153ZM80.0153 8.53861V5.43538H83.9446V8.53861H80.0153ZM90.676 22.6207C89.0687 22.6207 87.7668 22.0487 86.7705 20.9046C85.7741 19.7604 85.2759 18.201 85.2759 16.2262C85.2759 14.3455 85.7741 12.8173 86.7705 11.6419C87.783 10.4507 89.0848 9.85517 90.676 9.85517C92.1543 9.85517 93.3039 10.4272 94.1233 11.5713H94.1956V5.43538H98.1254V22.2446H94.3645V20.6225H94.3164C93.5128 21.9546 92.299 22.6207 90.676 22.6207ZM91.6885 19.588C92.4922 19.588 93.1269 19.2824 93.5932 18.6711C94.059 18.0443 94.2922 17.2292 94.2922 16.2262C94.2922 15.176 94.0752 14.3376 93.6413 13.7107C93.2073 13.0681 92.5726 12.7468 91.7366 12.7468C90.9653 12.7468 90.3543 13.0602 89.9047 13.6872C89.4707 14.314 89.2537 15.1447 89.2537 16.1792C89.2537 17.2292 89.4707 18.0599 89.9047 18.6711C90.3386 19.2824 90.9329 19.588 91.6885 19.588ZM100.003 22.2446V10.2078H103.933V22.2446H100.003ZM100.003 8.53861V5.43538H103.933V8.53861H100.003ZM110.712 22.3857C109.458 22.3857 108.486 22.1427 107.795 21.6568C107.12 21.1553 106.782 20.2933 106.782 19.0709V12.6057H105.143V10.2078H106.782V6.3993H110.616V10.2078H112.858V12.6057H110.616V18.248C110.616 18.6868 110.728 18.9924 110.953 19.1648C111.194 19.3372 111.54 19.4235 111.99 19.4235C112.119 19.4235 112.287 19.4235 112.496 19.4235C112.705 19.4077 112.826 19.4 112.858 19.4V22.1975C112.408 22.3229 111.692 22.3857 110.712 22.3857ZM115.033 26.2176V23.232H116.383C117.46 23.232 117.998 22.8088 117.998 21.9625C117.998 21.555 117.749 20.7243 117.251 19.4705L113.611 10.2078H117.758L119.421 15.3329L120.193 18.1069H120.24C120.465 17.0412 120.706 16.1165 120.963 15.3329L122.579 10.2078H126.509L122.242 22.4091C121.743 23.8197 121.149 24.8071 120.458 25.3713C119.782 25.9355 118.826 26.2176 117.589 26.2176H115.033ZM134.496 22.6442C132.165 22.6442 130.308 22.1583 128.926 21.1867C127.561 20.1993 126.853 18.7887 126.805 16.955H131.096C131.273 18.5536 132.398 19.353 134.472 19.353C135.243 19.353 135.893 19.2119 136.424 18.9298C136.971 18.6319 137.243 18.1853 137.243 17.5898C137.243 17.1823 137.076 16.8453 136.738 16.5788C136.4 16.2967 136.055 16.1008 135.701 15.9911C135.363 15.8813 134.712 15.7089 133.749 15.4739C133.7 15.4582 133.668 15.4504 133.652 15.4504C133.636 15.4347 133.612 15.4268 133.58 15.4268C133.548 15.4112 133.515 15.4034 133.483 15.4034C132.743 15.2309 132.133 15.0821 131.651 14.9567C131.185 14.8156 130.646 14.6118 130.036 14.3455C129.441 14.0634 128.967 13.7577 128.613 13.4286C128.259 13.0994 127.954 12.6685 127.697 12.1356C127.456 11.587 127.336 10.9758 127.336 10.3018C127.336 8.57782 127.963 7.28479 129.215 6.42277C130.486 5.56075 132.142 5.12979 134.183 5.12979C136.143 5.12979 137.742 5.5686 138.979 6.4463C140.233 7.32395 140.9 8.60914 140.981 10.3018H136.809C136.73 9.65922 136.448 9.16552 135.966 8.82073C135.484 8.46024 134.841 8.28003 134.038 8.28003C133.298 8.28003 132.696 8.42892 132.23 8.72672C131.78 9.00883 131.554 9.38495 131.554 9.85517C131.554 10.388 131.827 10.7798 132.375 11.0306C132.921 11.2657 133.95 11.5478 135.46 11.877C136.408 12.0964 137.188 12.3158 137.799 12.5352C138.409 12.739 139.028 13.0368 139.655 13.4286C140.297 13.8203 140.772 14.3297 141.077 14.9567C141.399 15.5679 141.559 16.3045 141.559 17.1666C141.559 18.8749 140.892 20.215 139.558 21.1867C138.24 22.1583 136.552 22.6442 134.496 22.6442ZM149.184 22.6207C147.223 22.6207 145.64 22.0173 144.434 20.8105C143.229 19.6036 142.626 18.0835 142.626 16.2497C142.626 14.416 143.221 12.8957 144.41 11.6888C145.6 10.4821 147.158 9.87865 149.088 9.87865C150.727 9.87865 152.069 10.3018 153.113 11.1482C154.158 11.9945 154.769 13.1073 154.945 14.4865H151.161C150.888 13.2953 150.213 12.6998 149.135 12.6998C148.3 12.6998 147.665 13.0132 147.231 13.6402C146.813 14.2671 146.604 15.137 146.604 16.2497C146.604 17.3468 146.822 18.2087 147.256 18.8357C147.689 19.4469 148.316 19.7526 149.135 19.7526C150.389 19.7526 151.105 19.063 151.281 17.6837H155.043C154.994 19.11 154.431 20.2933 153.355 21.2337C152.294 22.1583 150.903 22.6207 149.184 22.6207ZM160.17 22.5502C158.9 22.5502 157.88 22.2288 157.109 21.5863C156.337 20.9437 155.951 20.0425 155.951 18.8827C155.951 17.6603 156.369 16.7748 157.205 16.2262C158.04 15.662 159.198 15.2858 160.676 15.0977C161.882 14.9567 162.701 14.8 163.135 14.6276C163.586 14.4394 163.811 14.1496 163.811 13.7577C163.811 12.8957 163.248 12.4647 162.123 12.4647C160.918 12.4647 160.25 12.9819 160.122 14.0163H156.506C156.553 12.8252 157.053 11.8378 158 11.0541C158.965 10.2705 160.331 9.87865 162.099 9.87865C163.867 9.87865 165.201 10.2078 166.101 10.866C167.145 11.6027 167.668 12.7468 167.668 14.2984V20.3638C167.668 21.3199 167.812 21.892 168.101 22.08V22.2446H164.292C164.132 22.0251 163.995 21.5784 163.883 20.9046H163.834C163.047 22.0016 161.825 22.5502 160.17 22.5502ZM161.423 20.1052C162.163 20.1052 162.758 19.9093 163.208 19.5175C163.674 19.11 163.907 18.5849 163.907 17.9424V16.5083C163.522 16.6963 162.846 16.9079 161.882 17.1431C161.095 17.3154 160.539 17.5192 160.218 17.7543C159.897 17.9894 159.737 18.3264 159.737 18.7652C159.737 19.6585 160.299 20.1052 161.423 20.1052ZM169.573 22.2446V10.2078H173.358V11.8535H173.431C174.379 10.5212 175.648 9.85517 177.239 9.85517C178.573 9.85517 179.617 10.2783 180.373 11.1247C181.145 11.9553 181.53 13.0524 181.53 14.416V22.2446H177.601V15.1918C177.601 14.5335 177.432 14.0163 177.094 13.6402C176.773 13.2484 176.299 13.0524 175.672 13.0524C175.029 13.0524 174.507 13.2876 174.105 13.7577C173.703 14.2279 173.502 14.8392 173.502 15.5914V22.2446H169.573Z" fill="#E3E4E6"/>
</svg>
