<svg width="1718" height="1718" viewBox="0 0 1718 1718" fill="none" xmlns="http://www.w3.org/2000/svg">
<rect width="1718" height="1718" rx="120" fill="#00FFA3"/>
<path fill-rule="evenodd" clip-rule="evenodd" d="M1049.43 566.624L880.976 469C831.798 528.579 794.841 596.473 771.295 668.615C900.885 695.772 1015.39 764.145 1100.52 859.556C1151 916.144 1191.12 982.184 1217.95 1054.68V664.248H1217.89L1049.49 566.624H1049.43Z" fill="black"/>
<path opacity="0.3" fill-rule="evenodd" clip-rule="evenodd" d="M829.766 541.159C830.126 540.559 830.546 539.958 830.907 539.357L829.766 541.159Z" fill="black"/>
<path fill-rule="evenodd" clip-rule="evenodd" d="M771.111 1050.2C697.076 1065.81 620.002 1067.67 544 1054.68L712.515 1152.31L881.03 1249.93L1049.49 1152.31L1218 1054.68C1191.18 982.125 1151.06 916.085 1100.57 859.557C1012.35 958.616 896.051 1023.94 771.23 1050.2H771.111Z" fill="black"/>
<path fill-rule="evenodd" clip-rule="evenodd" d="M544 664.249V1054.74C620.002 1067.73 697.076 1065.81 771.111 1050.26C729.742 924.041 731.53 790.346 771.23 668.675C794.835 596.534 831.733 528.64 880.911 469.061L712.396 566.685L544 664.249Z" fill="black"/>
</svg>
